<svg xmlns="http://www.w3.org/2000/svg" xmlns:xlink="http://www.w3.org/1999/xlink" width="198.013" height="404.766" viewBox="0 0 198.013 404.766">
  <defs>
    <linearGradient id="linear-gradient" x1="0.5" x2="0.5" y2="1" gradientUnits="objectBoundingBox">
      <stop offset="0" stop-color="#8f2ba8"/>
      <stop offset="1" stop-color="#df007f"/>
    </linearGradient>
  </defs>
  <path id="_1" data-name="1" d="M210.281,61.562H14.857V54.274L40.525,46.63a45.616,45.616,0,0,0,10.61-4.979,30.508,30.508,0,0,0,7.54-6.873,27.789,27.789,0,0,0,4.517-8.784A36.455,36.455,0,0,0,64.7,15.238V-287.321L12.268-280.43v-9.3l.487-.1C25.409-292.316,38-295.368,50.168-298.9s24.268-7.633,35.956-12.2,23.193-9.567,34.186-14.861,21.786-11.03,32.082-17.049l.337-.2,9.011,6.037-.009.319-2.589,89.584v262.5a37.424,37.424,0,0,0,1.512,10.953,26.787,26.787,0,0,0,4.514,8.739,28.169,28.169,0,0,0,7.528,6.593A42.144,42.144,0,0,0,183.3,46l.015,0,26.966,8.275ZM16.074,60.385h192.99V55.14l-26.111-8.013a43.366,43.366,0,0,1-10.909-4.607,29.368,29.368,0,0,1-7.847-6.877,27.946,27.946,0,0,1-4.711-9.117,38.561,38.561,0,0,1-1.563-11.288V-247.288l2.58-89.273-7.821-5.24c-10.222,5.965-20.929,11.649-31.831,16.9C109.83-319.6,98.3-314.583,86.579-310s-23.856,8.7-36.062,12.235c-12.05,3.493-24.507,6.521-37.032,9v6.99l52.436-6.892V15.238a37.591,37.591,0,0,1-1.563,11.094,28.947,28.947,0,0,1-4.707,9.15,31.7,31.7,0,0,1-7.835,7.145,46.856,46.856,0,0,1-10.906,5.12l-.018.006-24.817,7.39Z" transform="translate(-12.268 343.203)" fill="url(#linear-gradient)"/>
</svg>
