<svg id="AFAM" xmlns="http://www.w3.org/2000/svg" width="219.979" height="66.442" viewBox="0 0 219.979 66.442">
  <g id="Group_84" data-name="Group 84" transform="translate(89.112 39.591)">
    <path id="Path_1364" data-name="Path 1364" d="M154.173,72.546h-.859l-.83-1.871H148.63l-.84,1.871h-.819l3.226-7.13h.748Zm-3.61-6.189-1.618,3.61h3.226Z" transform="translate(-146.972 -65.344)" fill="#fff"/>
    <path id="Path_1365" data-name="Path 1365" d="M162.32,67.65a.9.9,0,0,0,.293.37,2.144,2.144,0,0,0,.586.3,6.937,6.937,0,0,0,.961.258,4.172,4.172,0,0,1,1.744.729,1.581,1.581,0,0,1,.561,1.286,1.869,1.869,0,0,1-.675,1.469,2.218,2.218,0,0,1-.761.405,3.176,3.176,0,0,1-.971.142,4.248,4.248,0,0,1-1.553-.274,4.386,4.386,0,0,1-1.34-.848l.5-.587a4.163,4.163,0,0,0,1.123.754,3.227,3.227,0,0,0,1.3.248,1.823,1.823,0,0,0,1.148-.334,1.064,1.064,0,0,0,.43-.882,1.183,1.183,0,0,0-.081-.451.908.908,0,0,0-.284-.359,2,2,0,0,0-.563-.294,7.125,7.125,0,0,0-.917-.253,7.343,7.343,0,0,1-1.059-.3,2.629,2.629,0,0,1-.745-.416,1.522,1.522,0,0,1-.436-.567,1.917,1.917,0,0,1-.142-.77,1.759,1.759,0,0,1,.172-.78,1.809,1.809,0,0,1,.486-.613,2.353,2.353,0,0,1,.738-.4,2.821,2.821,0,0,1,.931-.147,3.933,3.933,0,0,1,1.36.214,4.114,4.114,0,0,1,1.128.645l-.465.616a3.467,3.467,0,0,0-1-.586,3.04,3.04,0,0,0-1.047-.182,2,2,0,0,0-.622.091,1.58,1.58,0,0,0-.475.243,1.043,1.043,0,0,0-.3.365,1,1,0,0,0-.106.455A1.218,1.218,0,0,0,162.32,67.65Z" transform="translate(-152.56 -65.312)" fill="#fff"/>
    <path id="Path_1366" data-name="Path 1366" d="M173.83,67.65a.9.9,0,0,0,.293.37,2.144,2.144,0,0,0,.586.3,6.938,6.938,0,0,0,.961.258,4.173,4.173,0,0,1,1.744.729,1.581,1.581,0,0,1,.561,1.286,1.869,1.869,0,0,1-.675,1.469,2.217,2.217,0,0,1-.761.405,3.176,3.176,0,0,1-.971.142,4.247,4.247,0,0,1-1.552-.274,4.387,4.387,0,0,1-1.34-.848l.5-.587a4.163,4.163,0,0,0,1.123.754,3.227,3.227,0,0,0,1.3.248,1.823,1.823,0,0,0,1.148-.334,1.064,1.064,0,0,0,.43-.882,1.182,1.182,0,0,0-.081-.451.908.908,0,0,0-.284-.359,2,2,0,0,0-.563-.294,7.128,7.128,0,0,0-.917-.253,7.341,7.341,0,0,1-1.059-.3,2.63,2.63,0,0,1-.745-.416,1.523,1.523,0,0,1-.436-.567,1.917,1.917,0,0,1-.142-.77,1.759,1.759,0,0,1,.172-.78,1.809,1.809,0,0,1,.486-.613,2.353,2.353,0,0,1,.738-.4,2.821,2.821,0,0,1,.93-.147,3.933,3.933,0,0,1,1.36.214,4.114,4.114,0,0,1,1.128.645l-.465.616a3.467,3.467,0,0,0-1-.586,3.04,3.04,0,0,0-1.047-.182,2,2,0,0,0-.622.091,1.58,1.58,0,0,0-.475.243,1.044,1.044,0,0,0-.3.365,1,1,0,0,0-.106.455A1.217,1.217,0,0,0,173.83,67.65Z" transform="translate(-157.091 -65.312)" fill="#fff"/>
    <path id="Path_1367" data-name="Path 1367" d="M190.221,66.227H185.9v2.418h3.863v.728H185.9V71.85h4.369v.728H185.1V65.5h5.118Z" transform="translate(-161.983 -65.377)" fill="#fff"/>
    <path id="Path_1368" data-name="Path 1368" d="M199.622,72.578h-.8V66.237h-2.377V65.5H202v.738h-2.377Z" transform="translate(-166.449 -65.377)" fill="#fff"/>
    <path id="Path_1369" data-name="Path 1369" d="M218.493,70.636h-.04l-2.579-3.782v5.725h-.779V65.5h.809l2.579,3.864,2.579-3.864h.809v7.08h-.8V66.844Z" transform="translate(-173.79 -65.377)" fill="#fff"/>
    <path id="Path_1370" data-name="Path 1370" d="M236.774,72.546h-.86l-.83-1.871h-3.853l-.839,1.871h-.819l3.226-7.13h.748Zm-3.611-6.189-1.618,3.61h3.226Z" transform="translate(-179.49 -65.344)" fill="#fff"/>
    <path id="Path_1371" data-name="Path 1371" d="M249.961,65.5h.779v7.08H250.1l-4.572-5.805v5.805h-.779V65.5h.748l4.46,5.674Z" transform="translate(-185.466 -65.377)" fill="#fff"/>
    <path id="Path_1372" data-name="Path 1372" d="M265.131,72.546h-.86l-.83-1.871h-3.853l-.839,1.871h-.819l3.226-7.13h.748Zm-3.611-6.189-1.618,3.61h3.226Z" transform="translate(-190.654 -65.344)" fill="#fff"/>
    <path id="Path_1373" data-name="Path 1373" d="M277.131,72.3a3.994,3.994,0,0,1-1.624.318,3.793,3.793,0,0,1-1.5-.283,3.328,3.328,0,0,1-1.851-1.942,4.062,4.062,0,0,1-.248-1.426,3.842,3.842,0,0,1,.258-1.4,3.662,3.662,0,0,1,.723-1.174,3.422,3.422,0,0,1,2.569-1.1,5.059,5.059,0,0,1,.814.061,3.551,3.551,0,0,1,.687.182,3.307,3.307,0,0,1,.6.3,5.08,5.08,0,0,1,.541.4l-.516.607a3.552,3.552,0,0,0-.425-.329,2.8,2.8,0,0,0-.48-.253,2.976,2.976,0,0,0-.566-.167,3.565,3.565,0,0,0-.683-.061,2.514,2.514,0,0,0-1.082.233,2.627,2.627,0,0,0-.85.628,2.93,2.93,0,0,0-.556.927,3.148,3.148,0,0,0-.2,1.13,3.432,3.432,0,0,0,.2,1.181,2.75,2.75,0,0,0,.561.937,2.561,2.561,0,0,0,.88.618,2.905,2.905,0,0,0,1.163.223,3.135,3.135,0,0,0,1.143-.208,3.372,3.372,0,0,0,.9-.5V69.435h-2.154v-.708h2.923v2.814A4.544,4.544,0,0,1,277.131,72.3Z" transform="translate(-196.156 -65.298)" fill="#fff"/>
    <path id="Path_1374" data-name="Path 1374" d="M291.62,66.227H287.3v2.418h3.864v.728H287.3V71.85h4.369v.728H286.5V65.5h5.118Z" transform="translate(-201.902 -65.377)" fill="#fff"/>
    <path id="Path_1375" data-name="Path 1375" d="M302.078,70.636h-.04l-2.579-3.782v5.725h-.779V65.5h.809l2.579,3.864,2.579-3.864h.809v7.08h-.8V66.844Z" transform="translate(-206.696 -65.377)" fill="#fff"/>
    <path id="Path_1376" data-name="Path 1376" d="M319.277,66.227h-4.319v2.418h3.863v.728h-3.863V71.85h4.369v.728h-5.168V65.5h5.118Z" transform="translate(-212.79 -65.377)" fill="#fff"/>
    <path id="Path_1377" data-name="Path 1377" d="M331.545,65.5h.779v7.08h-.637l-4.572-5.805v5.805h-.779V65.5h.748l4.46,5.674Z" transform="translate(-217.584 -65.377)" fill="#fff"/>
    <path id="Path_1378" data-name="Path 1378" d="M342.856,72.578h-.8V66.237h-2.377V65.5h5.552v.738h-2.377Z" transform="translate(-222.838 -65.377)" fill="#fff"/>
  </g>
  <g id="Group_85" data-name="Group 85" transform="translate(81.198 23.279)">
    <path id="Path_1379" data-name="Path 1379" d="M143.621,48.16h-4.516v-.651a3.07,3.07,0,0,0,.834-.081.36.36,0,0,0,.263-.385,1.207,1.207,0,0,0-.084-.431l-.453-1.131h-3.109l-.233.622a2.455,2.455,0,0,0-.2.756.5.5,0,0,0,.329.537,2.381,2.381,0,0,0,.765.113v.651h-3.3v-.651a1.4,1.4,0,0,0,.67-.148,1.474,1.474,0,0,0,.526-.562,7.459,7.459,0,0,0,.541-1.17l2.763-7.235h.67l2.92,7.461q.318.791.466,1.071a1.057,1.057,0,0,0,.41.43,1.472,1.472,0,0,0,.735.152v.651Zm-4.211-3.371-1.321-3.342-1.258,3.342Z" transform="translate(-133.92 -38.395)" fill="#fff"/>
    <path id="Path_1380" data-name="Path 1380" d="M162.526,39.347a2.494,2.494,0,0,0-.981.138.619.619,0,0,0-.368.406,3.867,3.867,0,0,0-.07.876v7.6h-.651l-6.267-7.448v5.279a3.755,3.755,0,0,0,.073.872.653.653,0,0,0,.379.417,2.425,2.425,0,0,0,.981.145v.651h-3.561v-.651a2.162,2.162,0,0,0,.922-.145.629.629,0,0,0,.354-.417,4.041,4.041,0,0,0,.066-.872V41.3q0-.594-.03-.89a1.392,1.392,0,0,0-.153-.52.878.878,0,0,0-.392-.36,2.183,2.183,0,0,0-.753-.188V38.7h2.79l5.455,6.444V40.768a3.416,3.416,0,0,0-.074-.823.689.689,0,0,0-.367-.442,2.094,2.094,0,0,0-.93-.155V38.7h3.575v.65Z" transform="translate(-141.062 -38.514)" fill="#fff"/>
    <path id="Path_1381" data-name="Path 1381" d="M182.687,44.388a2.274,2.274,0,0,0-.618.131.5.5,0,0,0-.285.3,2.085,2.085,0,0,0-.078.667v2.247a10.14,10.14,0,0,0-2.219.269q-.862.191-1.293.265a6.1,6.1,0,0,1-1.017.074,4.749,4.749,0,0,1-2.665-.728,4.623,4.623,0,0,1-1.664-1.873,5.331,5.331,0,0,1-.555-2.353,4.971,4.971,0,0,1,.658-2.526,4.844,4.844,0,0,1,4.24-2.448,4.487,4.487,0,0,1,2.959,1.123,2.907,2.907,0,0,0,.262-.834h.685l.072,3.138h-.651a3.553,3.553,0,0,0-.558-1.308,3.071,3.071,0,0,0-1.021-.94,2.7,2.7,0,0,0-1.346-.346,3.078,3.078,0,0,0-1.053.186,2.565,2.565,0,0,0-.965.651,3.323,3.323,0,0,0-.721,1.262,6.178,6.178,0,0,0-.273,1.971,8.721,8.721,0,0,0,.211,1.93,3.285,3.285,0,0,0,.863,1.589,2.457,2.457,0,0,0,1.838.664,2.737,2.737,0,0,0,1.412-.294,1.373,1.373,0,0,0,.625-.717,2.89,2.89,0,0,0,.146-.947,2.577,2.577,0,0,0-.073-.72.547.547,0,0,0-.347-.333,2.449,2.449,0,0,0-.838-.106v-.651h4.267v.651Z" transform="translate(-149.027 -38.403)" fill="#fff"/>
    <path id="Path_1382" data-name="Path 1382" d="M200.133,45.078l-.065,3.2h-8.535v-.651a1.721,1.721,0,0,0,1.137-.254,1.221,1.221,0,0,0,.254-.876V40.479a1.925,1.925,0,0,0-.084-.647.643.643,0,0,0-.392-.356,2.493,2.493,0,0,0-.915-.128V38.7h4.819v.65a2.622,2.622,0,0,0-.909.12.666.666,0,0,0-.4.349,1.807,1.807,0,0,0-.1.662V45.99a4.719,4.719,0,0,0,.065.932.619.619,0,0,0,.345.428,2.178,2.178,0,0,0,.926.144,7.216,7.216,0,0,0,1.425-.124,2.175,2.175,0,0,0,1.13-.656,2.734,2.734,0,0,0,.647-1.636h.651Z" transform="translate(-156.601 -38.514)" fill="#fff"/>
    <path id="Path_1383" data-name="Path 1383" d="M219.2,43.377a5.04,5.04,0,0,1-.624,2.449,4.624,4.624,0,0,1-1.84,1.83,5.755,5.755,0,0,1-2.88.689,6.076,6.076,0,0,1-2.388-.438,4.637,4.637,0,0,1-1.686-1.173,4.895,4.895,0,0,1-.967-1.611,5.167,5.167,0,0,1-.315-1.759,5.093,5.093,0,0,1,.6-2.416,4.544,4.544,0,0,1,1.809-1.834,5.681,5.681,0,0,1,2.889-.7,6.124,6.124,0,0,1,2.607.5,4.51,4.51,0,0,1,1.674,1.265,4.934,4.934,0,0,1,.859,1.6,5.414,5.414,0,0,1,.259,1.593Zm-2.291-.028a8.152,8.152,0,0,0-.136-1.526,3.973,3.973,0,0,0-.485-1.3,2.542,2.542,0,0,0-.947-.926,2.962,2.962,0,0,0-1.484-.342,2.765,2.765,0,0,0-1.9.6,3.038,3.038,0,0,0-.927,1.513,7.68,7.68,0,0,0-.242,1.982,10.27,10.27,0,0,0,.077,1.236,4.69,4.69,0,0,0,.374,1.318,2.751,2.751,0,0,0,.947,1.137,2.833,2.833,0,0,0,1.682.464,2.711,2.711,0,0,0,1.664-.477,2.822,2.822,0,0,0,.934-1.166,4.828,4.828,0,0,0,.366-1.318,9.937,9.937,0,0,0,.074-1.194Z" transform="translate(-163.28 -38.403)" fill="#fff"/>
    <path id="Path_1384" data-name="Path 1384" d="M244.576,41.184h-.663a2.918,2.918,0,0,0-.471-1.166,1.2,1.2,0,0,0-.657-.452,4.7,4.7,0,0,0-1.013-.085h-1.711v3.384h.9a1.255,1.255,0,0,0,.863-.219,1.554,1.554,0,0,0,.268-.967h.651v3.186h-.665a2.783,2.783,0,0,0-.132-.791.562.562,0,0,0-.325-.333,1.974,1.974,0,0,0-.688-.091h-.87V46.5a1.322,1.322,0,0,0,.23.855q.229.276,1.092.275h.2v.651h-4.917v-.651a1.662,1.662,0,0,0,1.127-.258,1.232,1.232,0,0,0,.251-.872V40.479a1.89,1.89,0,0,0-.086-.64.656.656,0,0,0-.385-.36,2.393,2.393,0,0,0-.907-.131V38.7h7.843l.07,2.487Z" transform="translate(-174.368 -38.514)" fill="#fff"/>
    <path id="Path_1385" data-name="Path 1385" d="M263.525,43.377a5.034,5.034,0,0,1-.624,2.449,4.618,4.618,0,0,1-1.84,1.83,5.755,5.755,0,0,1-2.88.689,6.08,6.08,0,0,1-2.388-.438,4.639,4.639,0,0,1-1.685-1.173,4.894,4.894,0,0,1-.967-1.611,5.151,5.151,0,0,1-.315-1.759,5.093,5.093,0,0,1,.6-2.416,4.543,4.543,0,0,1,1.809-1.834,5.68,5.68,0,0,1,2.889-.7,6.124,6.124,0,0,1,2.607.5,4.509,4.509,0,0,1,1.674,1.265,4.946,4.946,0,0,1,.859,1.6,5.393,5.393,0,0,1,.259,1.593Zm-2.291-.028a8.147,8.147,0,0,0-.136-1.526,3.971,3.971,0,0,0-.485-1.3,2.547,2.547,0,0,0-.947-.926,2.964,2.964,0,0,0-1.484-.342,2.763,2.763,0,0,0-1.9.6,3.039,3.039,0,0,0-.927,1.513,7.651,7.651,0,0,0-.242,1.982,10.252,10.252,0,0,0,.077,1.236,4.686,4.686,0,0,0,.374,1.318,2.745,2.745,0,0,0,.947,1.137,2.832,2.832,0,0,0,1.682.464,2.711,2.711,0,0,0,1.664-.477,2.821,2.821,0,0,0,.934-1.166,4.85,4.85,0,0,0,.366-1.318A9.938,9.938,0,0,0,261.235,43.35Z" transform="translate(-180.732 -38.403)" fill="#fff"/>
    <path id="Path_1386" data-name="Path 1386" d="M283.975,48.187h-2.566a4.844,4.844,0,0,1-.348-.452c-.14-.2-.291-.43-.456-.7s-.3-.486-.41-.661l-.651-1.074a8.664,8.664,0,0,0-.661-.985.981.981,0,0,0-.508-.34,4.381,4.381,0,0,0-.971-.074h-.361v2.5a1.969,1.969,0,0,0,.085.636.647.647,0,0,0,.4.367,2.554,2.554,0,0,0,.916.127v.651h-4.806v-.651a1.69,1.69,0,0,0,1.128-.254,1.231,1.231,0,0,0,.25-.876V40.358a1.257,1.257,0,0,0-.243-.872,1.668,1.668,0,0,0-1.135-.258v-.664l2.219-.07c.171-.01.365-.016.584-.021s.422-.007.61-.007c.145,0,.388.005.728.015.476.014.92.042,1.335.084a6.384,6.384,0,0,1,.983.163,3.312,3.312,0,0,1,1.006.446,2.453,2.453,0,0,1,.778.819,2.287,2.287,0,0,1,.3,1.181,2.222,2.222,0,0,1-.209.932,2.153,2.153,0,0,1-.672.806,3.49,3.49,0,0,1-1.218.558,3.207,3.207,0,0,1,.877.753q.358.449,1.13,1.649a11.173,11.173,0,0,0,.735,1.035,1.783,1.783,0,0,0,.533.473,1.718,1.718,0,0,0,.618.159v.651ZM280,41.156a1.563,1.563,0,0,0-.7-1.519,3.822,3.822,0,0,0-1.819-.375c-.1,0-.185,0-.244,0s-.126,0-.2,0v3.851h.446a4.136,4.136,0,0,0,1.792-.347Q280,42.427,280,41.156Z" transform="translate(-188.924 -38.422)" fill="#fff"/>
    <path id="Path_1387" data-name="Path 1387" d="M300.913,41.418h-.672a2.791,2.791,0,0,0-.392-1.314,1.244,1.244,0,0,0-.647-.523,2.912,2.912,0,0,0-.8-.1H297.19V46.5a1.912,1.912,0,0,0,.084.647.645.645,0,0,0,.4.356,2.512,2.512,0,0,0,.911.127v.651h-4.8v-.651a1.713,1.713,0,0,0,1.137-.254,1.211,1.211,0,0,0,.255-.876V39.482h-1.019a4.333,4.333,0,0,0-.995.1,1.208,1.208,0,0,0-.7.523,2.518,2.518,0,0,0-.343,1.318h-.672V38.7h9.469v2.721Z" transform="translate(-195.934 -38.514)" fill="#fff"/>
    <path id="Path_1388" data-name="Path 1388" d="M319.857,39.347a2.09,2.09,0,0,0-.922.148.626.626,0,0,0-.343.424,4.03,4.03,0,0,0-.065.848V44.3a11.632,11.632,0,0,1-.067,1.466,2.715,2.715,0,0,1-.357.992,2.827,2.827,0,0,1-1.5,1.333,5.255,5.255,0,0,1-1.856.363,5.625,5.625,0,0,1-1.353-.173,4.171,4.171,0,0,1-1.3-.569,2.56,2.56,0,0,1-.913-1.038,3.877,3.877,0,0,1-.261-.71,3.394,3.394,0,0,1-.109-.671c-.013-.209-.018-.485-.018-.823l-.014-3.992a1.257,1.257,0,0,0-.242-.877,1.706,1.706,0,0,0-1.143-.254V38.7h4.834v.65a2.562,2.562,0,0,0-.918.124.662.662,0,0,0-.4.353,1.85,1.85,0,0,0-.092.654v3.992a8.582,8.582,0,0,0,.059,1.077,3.761,3.761,0,0,0,.187.809,1.92,1.92,0,0,0,.817.915,2.429,2.429,0,0,0,1.269.343,2.744,2.744,0,0,0,1.38-.363,1.986,1.986,0,0,0,.888-.944,3.367,3.367,0,0,0,.257-.937,9.242,9.242,0,0,0,.061-1.156V40.768a5.9,5.9,0,0,0-.029-.693.829.829,0,0,0-.155-.4.746.746,0,0,0-.42-.251,3.3,3.3,0,0,0-.81-.078V38.7h3.527v.65Z" transform="translate(-203.002 -38.514)" fill="#fff"/>
    <path id="Path_1389" data-name="Path 1389" d="M339.43,39.347a2.494,2.494,0,0,0-.981.138.618.618,0,0,0-.368.406,3.849,3.849,0,0,0-.07.876v7.6h-.65l-6.267-7.448v5.279a3.7,3.7,0,0,0,.074.872.65.65,0,0,0,.379.417,2.425,2.425,0,0,0,.981.145v.651h-3.561v-.651a2.162,2.162,0,0,0,.922-.145.629.629,0,0,0,.354-.417,4.039,4.039,0,0,0,.067-.872V41.3q0-.594-.03-.89a1.392,1.392,0,0,0-.153-.52.878.878,0,0,0-.392-.36,2.183,2.183,0,0,0-.753-.188V38.7h2.79l5.455,6.444V40.768a3.45,3.45,0,0,0-.074-.823.688.688,0,0,0-.367-.442,2.094,2.094,0,0,0-.93-.155V38.7h3.575v.65Z" transform="translate(-210.706 -38.514)" fill="#fff"/>
    <path id="Path_1390" data-name="Path 1390" d="M357.217,45.127l-.079,3.152H348.6v-.651a1.723,1.723,0,0,0,1.138-.254,1.224,1.224,0,0,0,.253-.876V40.479a2,2,0,0,0-.08-.64.644.644,0,0,0-.381-.36,2.474,2.474,0,0,0-.929-.131V38.7h7.949l.128,2.487h-.651a3.322,3.322,0,0,0-.5-1.183,1.165,1.165,0,0,0-.643-.438,5.232,5.232,0,0,0-1.071-.081h-1.795v3.384h.976a2.387,2.387,0,0,0,.749-.088.561.561,0,0,0,.345-.336,2.7,2.7,0,0,0,.134-.777h.68v3.186h-.651a2.347,2.347,0,0,0-.142-.78.6.6,0,0,0-.356-.335,2.428,2.428,0,0,0-.745-.086h-.99V45.9a8.223,8.223,0,0,0,.029.828.9.9,0,0,0,.151.434.7.7,0,0,0,.4.251,3.11,3.11,0,0,0,.794.078h.771a3.41,3.41,0,0,0,.929-.124,1.8,1.8,0,0,0,.866-.636,3.328,3.328,0,0,0,.593-1.607h.665Z" transform="translate(-218.437 -38.514)" fill="#fff"/>
  </g>
  <g id="Group_86" data-name="Group 86">
    <path id="Path_1391" data-name="Path 1391" d="M121.2,64.117V10.683l-.065-.05-.9-.539V63.9c.323.073.648.144.969.22Z" transform="translate(-47.334 -3.974)" fill="#fff"/>
    <path id="Path_1392" data-name="Path 1392" d="M118.386,63.068V8.992l-.969-.578V62.857C117.742,62.925,118.063,63,118.386,63.068Z" transform="translate(-46.225 -3.312)" fill="#fff"/>
    <path id="Path_1393" data-name="Path 1393" d="M115.57,62.048V7.312l-.969-.578V61.855q.486.094.969.193Z" transform="translate(-45.116 -2.651)" fill="#fff"/>
    <path id="Path_1394" data-name="Path 1394" d="M112.753,61.047V5.633l-.969-.578V60.877C112.107,60.934,112.432,60.987,112.753,61.047Z" transform="translate(-44.007 -1.99)" fill="#fff"/>
    <path id="Path_1395" data-name="Path 1395" d="M109.937,60.089V3.953l-.969-.578V59.923C109.293,59.975,109.614,60.033,109.937,60.089Z" transform="translate(-42.899 -1.329)" fill="#fff"/>
    <path id="Path_1396" data-name="Path 1396" d="M107.121,59.141V2.274l-.969-.578V59C106.475,59.049,106.8,59.092,107.121,59.141Z" transform="translate(-41.79 -0.668)" fill="#fff"/>
    <path id="Path_1397" data-name="Path 1397" d="M104.3,58.234V.594l-.969-.578V58.094C103.661,58.137,103.981,58.188,104.3,58.234Z" transform="translate(-40.681 -0.007)" fill="#fff"/>
    <path id="Path_1398" data-name="Path 1398" d="M72.967,57.041a123.066,123.066,0,0,1,15.191.938V0L67.044,12.591v44.6C69,57.094,70.973,57.041,72.967,57.041Z" transform="translate(-26.394)" fill="#fff"/>
    <path id="Path_1399" data-name="Path 1399" d="M57.371,69.141V30.279L44.4,38.093V70.541A119.945,119.945,0,0,1,57.371,69.141Z" transform="translate(-17.478 -11.92)" fill="#fff"/>
    <path id="Path_1400" data-name="Path 1400" d="M37.254,79.178V51.88l-9.031,5.355V81.107Q32.6,79.975,37.254,79.178Z" transform="translate(-11.111 -20.424)" fill="#fff"/>
    <path id="Path_1401" data-name="Path 1401" d="M46.356,96.614c17.51,0,33.6,2.5,46.356,6.677C79.959,97.228,63.866,93.6,46.356,93.6S12.754,97.228,0,103.291C12.754,99.114,28.846,96.614,46.356,96.614Z" transform="translate(0 -36.848)" fill="#fff"/>
  </g>
</svg>
