<svg xmlns="http://www.w3.org/2000/svg" width="223.821" height="24.776" viewBox="0 0 223.821 24.776">
  <g id="ballie" transform="translate(0.001 0.035)">
    <g id="Layer_1" data-name="Layer 1" transform="translate(-0.001 -0.035)">
      <path id="Path_1275" data-name="Path 1275" d="M3.733,23.033v.579a.737.737,0,0,1-.854.854H.853A.745.745,0,0,1,0,23.611V.83A.745.745,0,0,1,.853-.024H3.017A.738.738,0,0,1,3.871.83V8.436A8.7,8.7,0,0,1,9.038,6.728,8.67,8.67,0,0,1,15.4,9.359a8.67,8.67,0,0,1,2.643,6.362A8.667,8.667,0,0,1,15.4,22.082a8.67,8.67,0,0,1-6.358,2.655,9.233,9.233,0,0,1-5.317-1.7M8.985,10.566a4.932,4.932,0,0,0-3.615,1.5,4.945,4.945,0,0,0-1.5,3.666,4.945,4.945,0,0,0,1.5,3.666,5,5,0,0,0,3.669,1.5A5,5,0,0,0,12.7,19.4a4.948,4.948,0,0,0,1.5-3.666,4.982,4.982,0,0,0-1.5-3.666,5,5,0,0,0-3.719-1.5" transform="translate(0.001 0.035)" fill="#fff"/>
      <path id="Path_1276" data-name="Path 1276" d="M79.692,23.4v-.682a.738.738,0,0,1,.851-.854h1.93a.738.738,0,0,1,.851.854V38.47a.738.738,0,0,1-.851.854h-1.93a.738.738,0,0,1-.851-.854v-.647A9.07,9.07,0,0,1,74.337,39.6a9.023,9.023,0,0,1-9.02-9,9,9,0,0,1,9-9A9.123,9.123,0,0,1,79.692,23.4m-5.423,2.03a4.932,4.932,0,0,0-3.615,1.5,4.982,4.982,0,0,0-1.5,3.666,5.186,5.186,0,1,0,5.117-5.167" transform="translate(-44.888 -14.824)" fill="#fff"/>
      <path id="Path_1277" data-name="Path 1277" d="M131.866,23.762V1.046A.735.735,0,0,1,132.716.2h2.167a.735.735,0,0,1,.851.851V23.762a.735.735,0,0,1-.851.851h-2.167a.735.735,0,0,1-.851-.851" transform="translate(-90.616 -0.116)" fill="#fff"/>
      <path id="Path_1278" data-name="Path 1278" d="M153.507,23.763V1.047A.738.738,0,0,1,154.361.2h2.164c.582,0,.866.272.854.851V23.763c0,.579-.272.863-.854.851h-2.164a.738.738,0,0,1-.854-.851" transform="translate(-105.489 -0.116)" fill="#fff"/>
      <path id="Path_1279" data-name="Path 1279" d="M175.069,26.446V10.689a.737.737,0,0,1,.854-.854h2.164a.738.738,0,0,1,.854.854V26.446c0,.579-.272.863-.854.851h-2.164c-.582,0-.866-.272-.854-.851M177.014,4.09a1.848,1.848,0,0,1,1.345.579A1.877,1.877,0,0,1,178.922,6a1.9,1.9,0,0,1-.563,1.379,1.933,1.933,0,0,1-2.727,0A1.877,1.877,0,0,1,175.069,6a1.858,1.858,0,0,1,.544-1.332,1.917,1.917,0,0,1,1.4-.579" transform="translate(-120.314 -2.799)" fill="#fff"/>
      <path id="Path_1280" data-name="Path 1280" d="M211.046,32.028H199.383c-.047,0-.069.019-.069.05a3.418,3.418,0,0,0,.938,2,5.1,5.1,0,0,0,4.263,1.877,9.17,9.17,0,0,0,3.938-.885,2.586,2.586,0,0,1,.785-.272.785.785,0,0,1,.666.494l.766,1.432a1.11,1.11,0,0,1,.172.479c0,.26-.185.51-.547.747a11.1,11.1,0,0,1-5.942,1.673,8.913,8.913,0,0,1-6.546-2.593,8.779,8.779,0,0,1-2.593-6.446,8.707,8.707,0,0,1,2.593-6.412,8.319,8.319,0,0,1,6.174-2.524,7.518,7.518,0,0,1,5.558,2.167,8.546,8.546,0,0,1,2.405,6.343c0,.35,0,.669-.019.954l-.016.138c0,.544-.285.8-.854.766m-11.647-3h8.445c.047,0,.069-.078.069-.238a3.234,3.234,0,0,0-.813-2.014,4,4,0,0,0-3.275-1.517A4.591,4.591,0,0,0,200,27.218a2.859,2.859,0,0,0-.682,1.689c0,.091.028.134.084.134" transform="translate(-134.157 -14.862)" fill="#fff"/>
      <path id="Path_1281" data-name="Path 1281" d="M292.57,23.033v.579a.738.738,0,0,1-.854.854h-2.03a.738.738,0,0,1-.851-.854V.83c0-.582.272-.863.851-.854h2.167a.738.738,0,0,1,.854.854V8.436a8.839,8.839,0,0,1,11.525.938,8.682,8.682,0,0,1,2.643,6.362,8.679,8.679,0,0,1-2.643,6.362,8.67,8.67,0,0,1-6.358,2.643,9.233,9.233,0,0,1-5.317-1.7m5.251-12.467a5.12,5.12,0,0,0-5.114,5.167,5.167,5.167,0,1,0,10.321,0,5.126,5.126,0,0,0-5.22-5.167" transform="translate(-198.492 0.035)" fill="#fff"/>
      <path id="Path_1282" data-name="Path 1282" d="M368.538,23.395v-.682a.738.738,0,0,1,.851-.854h1.92a.745.745,0,0,1,.854.854V38.47a.737.737,0,0,1-.854.854h-1.927a.738.738,0,0,1-.851-.854v-.647a9.07,9.07,0,0,1-5.354,1.773,9.023,9.023,0,0,1-9.02-9,9.013,9.013,0,0,1,9.02-9,9.123,9.123,0,0,1,5.373,1.808m-5.436,2.03a4.926,4.926,0,0,0-3.615,1.5,4.982,4.982,0,0,0-1.5,3.666,5.177,5.177,0,1,0,5.117-5.167" transform="translate(-243.391 -14.824)" fill="#fff"/>
      <path id="Path_1283" data-name="Path 1283" d="M420.726,23.762V1.046A.735.735,0,0,1,421.576.2h2.167a.735.735,0,0,1,.851.851V23.762a.735.735,0,0,1-.851.851h-2.167a.735.735,0,0,1-.851-.851" transform="translate(-289.132 -0.116)" fill="#fff"/>
      <path id="Path_1284" data-name="Path 1284" d="M442.34,23.763V1.047A.738.738,0,0,1,443.193.2h2.152c.582,0,.863.272.854.851V23.763c0,.579-.272.863-.854.851h-2.164a.738.738,0,0,1-.854-.851" transform="translate(-303.978 -0.116)" fill="#fff"/>
      <path id="Path_1285" data-name="Path 1285" d="M478.586,32.063H466.923c-.047,0-.069.019-.069.05a3.418,3.418,0,0,0,.938,2,5.1,5.1,0,0,0,4.263,1.877,9.17,9.17,0,0,0,3.938-.885,2.587,2.587,0,0,1,.785-.272.785.785,0,0,1,.666.494l.766,1.432a1.11,1.11,0,0,1,.172.479c0,.26-.185.51-.547.747a11.1,11.1,0,0,1-5.942,1.673,8.913,8.913,0,0,1-6.546-2.593,8.779,8.779,0,0,1-2.593-6.446,8.707,8.707,0,0,1,2.577-6.4,8.316,8.316,0,0,1,6.171-2.524,7.522,7.522,0,0,1,5.561,2.167,8.546,8.546,0,0,1,2.405,6.343c0,.35,0,.669-.019.954l-.019.138c0,.544-.281.8-.851.766m-11.647-3h8.444c.047,0,.069-.078.069-.238a3.221,3.221,0,0,0-.8-2.03,3.984,3.984,0,0,0-3.271-1.517,4.591,4.591,0,0,0-3.838,1.977,2.859,2.859,0,0,0-.682,1.689c0,.091.028.134.084.134" transform="translate(-318.021 -14.897)" fill="#fff"/>
      <path id="Path_1286" data-name="Path 1286" d="M526.6,22.867a6.878,6.878,0,0,1,4.3-1.279h.888c.579-.022.863.263.851.854v2.189c0,.579-.272.866-.851.854h-.751q-4.213.05-4.3,3.6v9.383a.737.737,0,0,1-.854.854h-2.13a.738.738,0,0,1-.854-.854V22.713a.738.738,0,0,1,.854-.854h1.986a.716.716,0,0,1,.851.8Z" transform="translate(-359.348 -14.824)" fill="#fff"/>
      <path id="Path_1287" data-name="Path 1287" d="M562.3,36l1.482-.938a.985.985,0,0,1,.513-.188,1.076,1.076,0,0,1,.7.425,1.83,1.83,0,0,0,1.379.626,1.533,1.533,0,0,0,1.107-.444,1.439,1.439,0,0,0,.444-1.057,2.631,2.631,0,0,0-1.251-1.945,21.149,21.149,0,0,0-2.045-1.251A5.076,5.076,0,0,1,563.2,23.07a4.8,4.8,0,0,1,3.531-1.432,4.932,4.932,0,0,1,3.562,1.6,2.112,2.112,0,0,1,.751,1.21.8.8,0,0,1-.444.663l-1.4.938a.985.985,0,0,1-.51.206.829.829,0,0,1-.626-.341,1.611,1.611,0,0,0-1.251-.547,1.37,1.37,0,0,0-1.038.41,1.251,1.251,0,0,0-.394.938,1.891,1.891,0,0,0,.988,1.432c.263.194.826.544,1.689,1.057q3.531,2.061,3.528,5.364a4.929,4.929,0,0,1-5.045,5.048,5.267,5.267,0,0,1-3.922-1.689c-.525-.544-.785-.966-.785-1.251A.823.823,0,0,1,562.3,36" transform="translate(-386.046 -14.858)" fill="#fff"/>
      <path id="Path_1288" data-name="Path 1288" d="M609.737,21.557a8.975,8.975,0,0,1,8.9,8.973A8.757,8.757,0,0,1,616,36.957a9.029,9.029,0,0,1-12.736-.031,9.023,9.023,0,0,1-.022-12.739,8.814,8.814,0,0,1,6.512-2.643m-.131,3.894a5.095,5.095,0,0,0-5.1,5.1,5,5,0,0,0,1.532,3.675,5.143,5.143,0,1,0,3.565-8.773" transform="translate(-412.767 -14.793)" fill="#fff"/>
      <path id="Path_1289" data-name="Path 1289" d="M670.019,22.8a7.1,7.1,0,0,1,4.066-1.21,7.662,7.662,0,0,1,5.63,2.167,7.12,7.12,0,0,1,2.064,5.267v9.448a.738.738,0,0,1-.854.851h-2.149a.735.735,0,0,1-.851-.851V29.264a3.675,3.675,0,0,0-1.16-2.712A3.787,3.787,0,0,0,674,25.426a3.725,3.725,0,0,0-2.849,1.126,3.581,3.581,0,0,0-.919,2.54v9.383c0,.579-.272.863-.854.851h-2.13a.738.738,0,0,1-.854-.851V22.714a.741.741,0,0,1,.854-.854h1.927c.569-.022.854.241.854.785Z" transform="translate(-457.968 -14.825)" fill="#fff"/>
    </g>
  </g>
</svg>
