<svg id="fcf" xmlns="http://www.w3.org/2000/svg" width="162.89" height="86.512" viewBox="0 0 162.89 86.512">
  <g id="Group_94" data-name="Group 94">
    <g id="Group_87" data-name="Group 87" transform="translate(0 77.104)">
      <path id="Path_1402" data-name="Path 1402" d="M0,358.9v-9.384H5.474v.313H1.356V353.8h2.71v.326H1.356v4.77Z" transform="translate(0 -349.516)" fill="#fff"/>
      <path id="Path_1403" data-name="Path 1403" d="M40.972,358.587v.313H34.443v-9.384H35.8v9.071h5.174Z" transform="translate(-26.845 -349.516)" fill="#fff"/>
      <path id="Path_1404" data-name="Path 1404" d="M63.505,350.78a4.27,4.27,0,0,1,3.193-1.264,4.371,4.371,0,0,1,3.219,1.251,4.325,4.325,0,0,1,1.421,3.428,4.5,4.5,0,0,1-1.356,3.4,4.708,4.708,0,0,1-6.5,0,4.545,4.545,0,0,1-1.381-3.454A4.313,4.313,0,0,1,63.505,350.78Zm.99,6.686a2.563,2.563,0,0,0,2.307,1.095,2.645,2.645,0,0,0,2.268-1.095,7.642,7.642,0,0,0,.013-6.49,2.72,2.72,0,0,0-2.385-1.121,2.469,2.469,0,0,0-2.2,1.094,6.6,6.6,0,0,0,0,6.517Z" transform="translate(-48.399 -349.516)" fill="#fff"/>
      <path id="Path_1405" data-name="Path 1405" d="M114.512,355.459h-3.454l-1.316,3.441h-.5l3.884-9.384h.274l3.987,9.384H115.92l-.7-1.72Zm-.117-.313-1.642-3.936-1.6,3.936Z" transform="translate(-85.147 -349.516)" fill="#fff"/>
      <path id="Path_1406" data-name="Path 1406" d="M149.34,349.829H145.43v9.07h-1.356v-9.07H140.2l.013-.313h9.123v.313Z" transform="translate(-109.275 -349.516)" fill="#fff"/>
      <path id="Path_1407" data-name="Path 1407" d="M192.666,349.516V358.9H191.31v-9.384Z" transform="translate(-149.107 -349.516)" fill="#fff"/>
      <path id="Path_1408" data-name="Path 1408" d="M217.346,349.516V358.9H217.1l-6.581-8.641v8.406h-.3v-9.149h1.407l5.331,7.129v-7.129h.391Z" transform="translate(-163.843 -349.516)" fill="#fff"/>
      <path id="Path_1409" data-name="Path 1409" d="M260.669,354.9h1.3v1.486a1.858,1.858,0,0,1-.665,1.446,3.733,3.733,0,0,1-.926.639,6.044,6.044,0,0,1-2.111.43,4.369,4.369,0,0,1-4.509-4.522,5.123,5.123,0,0,1,1.225-3.4,4.108,4.108,0,0,1,3.323-1.46,3.791,3.791,0,0,1,2.971,1.3v.039l-.3.313a2.74,2.74,0,0,0-.443-.508,2.9,2.9,0,0,0-2.085-.821,3.028,3.028,0,0,0-2.229.951,4.711,4.711,0,0,0-.951,3.362,5.049,5.049,0,0,0,.926,3.414,2.927,2.927,0,0,0,2.268,1,2.671,2.671,0,0,0,1.251-.287,1.528,1.528,0,0,0,.756-.69,2.2,2.2,0,0,0,.2-1.029V354.9Z" transform="translate(-197.781 -349.516)" fill="#fff"/>
      <path id="Path_1410" data-name="Path 1410" d="M323.7,357.531a3.9,3.9,0,0,1-3.049,1.368,4.382,4.382,0,0,1-3.206-1.238,4.483,4.483,0,0,1-1.238-3.284,5.616,5.616,0,0,1,.574-2.529,3.777,3.777,0,0,1,1.6-1.759,4.568,4.568,0,0,1,2.255-.574,4.058,4.058,0,0,1,1.837.417,3.871,3.871,0,0,1,1.212.9v.039l-.261.248a2.272,2.272,0,0,0-.508-.547,3.319,3.319,0,0,0-2.085-.717,2.669,2.669,0,0,0-2.268,1.16,5.526,5.526,0,0,0-.834,3.3,4.736,4.736,0,0,0,.912,3.127,2.881,2.881,0,0,0,2.28,1.082,3.54,3.54,0,0,0,1.486-.351,2.472,2.472,0,0,0,1.03-.913Z" transform="translate(-246.453 -349.516)" fill="#fff"/>
      <path id="Path_1411" data-name="Path 1411" d="M361.416,355.459h-3.454l-1.316,3.441h-.495l3.884-9.384h.274L364.3,358.9h-1.472l-.7-1.72Zm-.117-.313-1.642-3.936-1.6,3.936Z" transform="translate(-277.583 -349.516)" fill="#fff"/>
      <path id="Path_1412" data-name="Path 1412" d="M406.35,356.7a2.455,2.455,0,0,1-.964,1.785,2.916,2.916,0,0,1-2.125.5,3.781,3.781,0,0,1-2.5-1.616l.248-.274a3.019,3.019,0,0,0,2.177,1.551,1.863,1.863,0,0,0,1.524-.378,1.665,1.665,0,0,0,.639-1.147,1.509,1.509,0,0,0-.326-1.172,5.874,5.874,0,0,0-1.564-1.134,14.111,14.111,0,0,1-1.538-.991,2.555,2.555,0,0,1-.755-.99,2.414,2.414,0,0,1-.169-1.212,2.1,2.1,0,0,1,.834-1.524,2.358,2.358,0,0,1,1.746-.456,3.111,3.111,0,0,1,1.043.3,2.789,2.789,0,0,1,.951.873l-.287.235a3.373,3.373,0,0,0-.26-.339,2.041,2.041,0,0,0-1.408-.743,1.429,1.429,0,0,0-1.212.3,1.408,1.408,0,0,0-.483.913,1.392,1.392,0,0,0,.365,1.094,6.441,6.441,0,0,0,1.564,1.16,15.3,15.3,0,0,1,1.577,1,2.265,2.265,0,0,1,.756.951,2.6,2.6,0,0,1,.17,1.316Z" transform="translate(-312.351 -349.601)" fill="#fff"/>
      <path id="Path_1413" data-name="Path 1413" d="M437.781,349.829h-3.909v9.07h-1.356v-9.07h-3.871l.013-.313h9.123Z" transform="translate(-334.085 -349.516)" fill="#fff"/>
      <path id="Path_1414" data-name="Path 1414" d="M486.281,358.587v.313h-6.53v-9.384h1.356v9.071Z" transform="translate(-373.917 -349.516)" fill="#fff"/>
      <path id="Path_1415" data-name="Path 1415" d="M520.192,358.574h2.88v.326h-5.448v-9.384H523.1v.313h-4.131V353.8h2.711v.326h-2.711v4.444Z" transform="translate(-403.435 -349.516)" fill="#fff"/>
      <path id="Path_1416" data-name="Path 1416" d="M566.722,358.9v-9.384H572.2v.313h-4.118V353.8h2.71v.326h-2.71v4.77Z" transform="translate(-441.702 -349.516)" fill="#fff"/>
      <path id="Path_1417" data-name="Path 1417" d="M602.524,349.516V358.9h-1.356v-9.384Z" transform="translate(-468.549 -349.516)" fill="#fff"/>
      <path id="Path_1418" data-name="Path 1418" d="M626.839,358.587v.313h-6.529v-9.384h1.356v9.071Z" transform="translate(-483.467 -349.516)" fill="#fff"/>
      <path id="Path_1419" data-name="Path 1419" d="M666.94,356.4v-5.982L663.2,358.9h-.326l-3.728-8.484V358.9h-.313v-9.384h1.3l3.441,7.781L667,349.516h1.29V358.9H666.94Z" transform="translate(-513.493 -349.516)" fill="#fff"/>
      <path id="Path_1420" data-name="Path 1420" d="M718.543,356.7a2.455,2.455,0,0,1-.964,1.785,2.915,2.915,0,0,1-2.124.5,3.781,3.781,0,0,1-2.5-1.616l.247-.274a3.019,3.019,0,0,0,2.177,1.551,1.863,1.863,0,0,0,1.525-.378,1.665,1.665,0,0,0,.639-1.147,1.509,1.509,0,0,0-.326-1.172,5.874,5.874,0,0,0-1.564-1.134,14.1,14.1,0,0,1-1.538-.991,2.555,2.555,0,0,1-.755-.99,2.414,2.414,0,0,1-.17-1.212,2.1,2.1,0,0,1,.834-1.524,2.358,2.358,0,0,1,1.746-.456,3.112,3.112,0,0,1,1.043.3,2.789,2.789,0,0,1,.951.873l-.287.235a3.368,3.368,0,0,0-.26-.339,2.041,2.041,0,0,0-1.408-.743,1.429,1.429,0,0,0-1.212.3,1.408,1.408,0,0,0-.483.913,1.392,1.392,0,0,0,.365,1.094,6.44,6.44,0,0,0,1.564,1.16,15.294,15.294,0,0,1,1.577,1,2.265,2.265,0,0,1,.756.951,2.6,2.6,0,0,1,.17,1.316Z" transform="translate(-555.672 -349.601)" fill="#fff"/>
    </g>
    <rect id="Rectangle_36" data-name="Rectangle 36" width="0.3" height="8.593" transform="matrix(0.992, -0.129, 0.129, 0.992, 63.484, 55.27)" fill="#fff"/>
    <rect id="Rectangle_37" data-name="Rectangle 37" width="0.3" height="8.593" transform="matrix(0.992, -0.129, 0.129, 0.992, 75.204, 54.453)" fill="#fff"/>
    <rect id="Rectangle_38" data-name="Rectangle 38" width="0.3" height="8.593" transform="matrix(0.992, -0.129, 0.129, 0.992, 84.828, 53.316)" fill="#fff"/>
    <rect id="Rectangle_39" data-name="Rectangle 39" width="0.45" height="6.242" transform="matrix(0.985, -0.175, 0.175, 0.985, 109.19, 43.151)" fill="#fff"/>
    <rect id="Rectangle_40" data-name="Rectangle 40" width="0.45" height="6.242" transform="matrix(0.985, -0.175, 0.175, 0.985, 71.069, 46.142)" fill="#fff"/>
    <rect id="Rectangle_41" data-name="Rectangle 41" width="0.451" height="9.747" transform="translate(98.203 42.474) rotate(-9.799)" fill="#fff"/>
    <rect id="Rectangle_42" data-name="Rectangle 42" width="0.451" height="9.747" transform="translate(84.804 43.106) rotate(-9.798)" fill="#fff"/>
    <path id="Path_1421" data-name="Path 1421" d="M504.261,123.014a.15.15,0,0,1-.03.114.165.165,0,0,1-.1.06l-.3.042h-.024a.143.143,0,0,1-.144-.126l-2.739-16.493a.151.151,0,0,1,.03-.114.14.14,0,0,1,.1-.06l.3-.042a.145.145,0,0,1,.168.12Z" transform="translate(-390.421 -82.923)" fill="#fff"/>
    <path id="Path_1422" data-name="Path 1422" d="M394,120.746a.153.153,0,0,1-.126.168l-.3.036h-.018a.118.118,0,0,1-.09-.03.14.14,0,0,1-.06-.1l-2.427-18.782a.145.145,0,0,1,.126-.168l.3-.042a.143.143,0,0,1,.108.03.162.162,0,0,1,.06.1Z" transform="translate(-304.73 -79.366)" fill="#fff"/>
    <path id="Path_1423" data-name="Path 1423" d="M446.565,114.377a.151.151,0,0,1-.03.114.163.163,0,0,1-.1.06l-.294.042h-.024a.148.148,0,0,1-.144-.126l-2.811-19a.146.146,0,0,1,.126-.168l.3-.048a.158.158,0,0,1,.168.126l2.811,19Z" transform="translate(-345.396 -74.235)" fill="#fff"/>
    <path id="Path_1424" data-name="Path 1424" d="M250.214,218.016c.195.788,1.979,1.566,2.479,1.77q.122.05.248.088c6.467,1.954,13.591,1.3,20.909-.17a65.449,65.449,0,0,0,14.737-5.042l-.393,2.558a63.243,63.243,0,0,1-21.856,6.219c-10.975,1.128-14.9-2.013-15.433-2.665s-1.1-5.681-1.1-5.681,1.337-2.365,7.58-4.39,18.106-1.923,30.759-1.772,19.549-3.021,19.549-3.021,3.616-1.859,3.582-3.307l.111.27s.785,2.73.228,3.618-4.388,5.174-16.016,5.792c-11.568.615-31.214.277-36.006,1.484s-9.3,3.049-9.177,4.46" transform="translate(-194.697 -157.907)" fill="#fff" stroke="#fff" stroke-miterlimit="10" stroke-width="1"/>
    <path id="Path_1425" data-name="Path 1425" d="M210.97,187.155a.153.153,0,0,1-.132.168l-.294.036h-.024a.127.127,0,0,1-.09-.03.132.132,0,0,1-.054-.1l-1.928-14.968a.149.149,0,0,1,.126-.168l.3-.042a.174.174,0,0,1,.108.03.166.166,0,0,1,.06.1Z" transform="translate(-162.462 -134.099)" fill="#fff"/>
    <path id="Path_1426" data-name="Path 1426" d="M240.5,166.294a.148.148,0,0,1-.126.168l-.294.042a.045.045,0,0,1-.024.006.152.152,0,0,1-.15-.132l-2.294-15.322a.151.151,0,0,1,.126-.174l.294-.042a.151.151,0,0,1,.114.03.148.148,0,0,1,.06.1Z" transform="translate(-185.189 -117.563)" fill="#fff"/>
    <path id="Path_1427" data-name="Path 1427" d="M284.223,146.629a.144.144,0,0,1-.132.162l-.294.042h-.018a.181.181,0,0,1-.1-.03.155.155,0,0,1-.054-.1L281.5,130.064a.149.149,0,0,1,.132-.168l.294-.042a.192.192,0,0,1,.114.03.189.189,0,0,1,.054.1Z" transform="translate(-219.396 -101.207)" fill="#fff"/>
    <g id="Group_88" data-name="Group 88" transform="translate(73.979 25.174)">
      <path id="Path_1428" data-name="Path 1428" d="M339.241,134.128q.063.441.126.955C339.319,134.759,339.277,134.434,339.241,134.128Z" transform="translate(-338.382 -129.713)" fill="#fff"/>
      <path id="Path_1429" data-name="Path 1429" d="M335.948,114.254a.156.156,0,0,0-.156-.138l-.3.006a.153.153,0,0,0-.144.156c0,.108.8,6.12,2.372,17.881l.006.042a.154.154,0,0,0,.15.132h.018l.3-.042a.144.144,0,0,0,.126-.168c-.907-6.781-2.354-17.628-2.372-17.869Zm.258,4.276q.063.441.126.955C336.284,119.162,336.242,118.837,336.206,118.531Z" transform="translate(-335.347 -114.116)" fill="#fff"/>
    </g>
    <g id="Group_89" data-name="Group 89" transform="translate(41.483 16.881)">
      <path id="Path_1430" data-name="Path 1430" d="M260.852,84.193c-5.708-3.078-15.009-3.661-24.172-2.4a125.92,125.92,0,0,0-32.2,9.477c-11.048,4.922-14.539,11.3-14.539,11.3l-.5-3.853s4.254-9.256,25.742-15.908c22.685-7.022,37.533-7.208,45.048-3.115l.816,4.456s-.006.08-.062.08A.393.393,0,0,1,260.852,84.193Z" transform="translate(-189.135 -76.888)" fill="#fff" stroke="#fff" stroke-miterlimit="10" stroke-width="1"/>
      <path id="Path_1431" data-name="Path 1431" d="M201.671,92.46c-10.475,5.507-12.525,9.825-12.559,9.888l-.443.807-.626-4.851.036-.079c.176-.383,5.066-9.529,26.231-16.777,14.615-5.005,36.728-6.876,44.975-2.385l.126.069.849,4.637,0,.039S232.379,76.318,201.671,92.46Z" transform="translate(-188.042 -76.521)" fill="#fff" stroke="#fff" stroke-miterlimit="10" stroke-width="1"/>
    </g>
    <path id="Path_1432" data-name="Path 1432" d="M274.92,184.583a6.563,6.563,0,0,1,1.379.7c-.123-.713-.435-2.426-.648-3.505,0,0-.524-2.511-21.389-1.126-18.094,1.2-41.321,6.295-49.7,15.241l.772,3.979c.712-1.477,2.381-3.416,8.187-6.457,16.362-8.569,50.3-10.511,57.485-9.568A16.727,16.727,0,0,1,274.92,184.583Z" transform="translate(-159.433 -140.478)" fill="#fff" stroke="#fff" stroke-miterlimit="10" stroke-width="1"/>
    <path id="Path_1433" data-name="Path 1433" d="M291.654,13.923l-.763.06c-1.76.138-3.55.336-5.322.559s-3.556.474-5.322.757l-2.655.45c-.883.15-1.76.336-2.643.5s-1.76.348-2.637.535-1.754.372-2.625.589l-2.613.631-2.6.7c-.871.216-1.73.493-2.589.745s-1.73.493-2.571.8l-2.553.865c-.853.294-1.682.637-2.523.955s-1.682.637-2.5,1.009l-2.487,1.069,2.415-1.225c.4-.2.8-.42,1.207-.607l1.237-.547c.829-.36,1.646-.745,2.487-1.081l2.517-.991c.841-.342,1.7-.613,2.553-.925.853-.294,1.7-.607,2.565-.871l2.589-.8,2.613-.727c.871-.252,1.748-.462,2.625-.679s1.754-.444,2.637-.637,1.766-.4,2.655-.571l2.661-.523c1.778-.324,3.562-.631,5.352-.895,1.544-.234,3.081-.426,4.643-.583l-.517-10.709-5.255.114.078,3.55.018.9-.895.018-7.34.126-.889.018-.018-.883-.06-3.568c-3.466.066-6.943.108-10.415.144l.042,3.622.006.787-.775.012L256,6.679l-.7.006L255.286,6l-.024-3.814-5.826.03-.012,5.075-.042,5.616-.042,5.616-.084,5.622L249,18.529l-.222-5.61L248.559,7.3l-.186-5.616-.018-.523.535-.018,7-.24.631-.024.024.649.114,3.742,6.523-.2-.1-3.67-.018-.8.817-.024q6.045-.162,12.1-.294l.871-.018.018.877.078,3.55,5.562-.114-.06-3.544-.018-.889.889-.012L290.3.012,291.162,0l.03.847.432,12.313Z" transform="translate(-193.567)" fill="#fff"/>
    <g id="Group_90" data-name="Group 90" transform="translate(42.859 18.237)">
      <path id="Path_1434" data-name="Path 1434" d="M326.341,96.658l.32,2.6q1.412-.4,2.793-.737l-.32-2.6Q327.712,96.27,326.341,96.658Z" transform="translate(-297.208 -92.995)" fill="#fff"/>
      <path id="Path_1435" data-name="Path 1435" d="M304.482,102.931c-.433.148-.852.3-1.271.448l.315,2.557q1.4-.482,2.772-.907l-.319-2.589C305.473,102.6,304.972,102.763,304.482,102.931Z" transform="translate(-279.18 -98.077)" fill="#fff"/>
      <path id="Path_1436" data-name="Path 1436" d="M349.664,91.382l.32,2.605q1.427-.313,2.813-.572l-.321-2.608c-.945.181-1.885.37-2.813.575Z" transform="translate(-315.386 -89.011)" fill="#fff"/>
      <path id="Path_1437" data-name="Path 1437" d="M396.782,84.506l.329,2.671c.975-.1,1.929-.184,2.853-.25l-.334-2.715C398.685,84.294,397.735,84.4,396.782,84.506Z" transform="translate(-352.109 -83.871)" fill="#fff"/>
      <path id="Path_1438" data-name="Path 1438" d="M373.149,87.349l.323,2.621q1.444-.232,2.833-.41l-.325-2.644q-1.418.2-2.831.433Z" transform="translate(-333.69 -85.978)" fill="#fff"/>
      <path id="Path_1439" data-name="Path 1439" d="M257.536,121.575l.3,2.412q1.369-.664,2.727-1.267l-.3-2.471q-1.435.664-2.72,1.326Z" transform="translate(-243.581 -111.958)" fill="#fff"/>
      <path id="Path_1440" data-name="Path 1440" d="M212.629,148.494l.214,1.743q1.17-.87,2.659-1.829l-.248-2.015C214.247,147.132,213.378,147.836,212.629,148.494Z" transform="translate(-208.581 -132.335)" fill="#fff"/>
      <path id="Path_1441" data-name="Path 1441" d="M280.266,111.7l.308,2.5q1.384-.571,2.75-1.081l-.312-2.533Q281.581,111.138,280.266,111.7Z" transform="translate(-261.297 -104.427)" fill="#fff"/>
      <path id="Path_1442" data-name="Path 1442" d="M194.279,167.856l.115.892a24,24,0,0,1,1.945-1.9l-.174-1.415A15.829,15.829,0,0,0,194.279,167.856Z" transform="translate(-194.279 -147.177)" fill="#fff"/>
      <path id="Path_1443" data-name="Path 1443" d="M234.646,133.5l.268,2.178c.754-.436,1.556-.88,2.416-1.332.128-.067.255-.13.383-.2l-.287-2.331Q235.92,132.669,234.646,133.5Z" transform="translate(-225.741 -120.973)" fill="#fff"/>
      <path id="Path_1444" data-name="Path 1444" d="M420.565,82.956l.339,2.752q1.492-.067,2.873-.082l-.344-2.8Q422.016,82.867,420.565,82.956Z" transform="translate(-370.645 -82.791)" fill="#fff"/>
      <path id="Path_1445" data-name="Path 1445" d="M469.041,86.574c1.041.079,2.015.172,2.917.273l-.337-2.737q-1.37-.232-2.93-.377" transform="translate(-408.155 -83.498)" fill="#fff"/>
      <path id="Path_1446" data-name="Path 1446" d="M444.517,82.667l.349,2.837c1.007.015,1.97.047,2.894.09l-.352-2.859q-1.388-.064-2.891-.068Z" transform="translate(-389.314 -82.667)" fill="#fff"/>
      <path id="Path_1447" data-name="Path 1447" d="M496.4,90.869l-.367-2a15.887,15.887,0,0,0-2.789-1l.31,2.521c1.115.164,2.071.332,2.846.484Z" transform="translate(-427.291 -86.717)" fill="#fff"/>
    </g>
    <g id="Group_91" data-name="Group 91" transform="translate(55.911 46.795)">
      <path id="Path_1448" data-name="Path 1448" d="M328,235.614l.212,2.151q.9-.039,1.858-.072l-.215-2.188Q328.913,235.553,328,235.614Z" transform="translate(-311.557 -230.347)" fill="#fff"/>
      <path id="Path_1449" data-name="Path 1449" d="M453.4,233.218l.188,1.908.566-.027c.434-.023.853-.052,1.264-.085l-.194-1.975Q454.342,233.139,453.4,233.218Z" transform="translate(-409.288 -228.425)" fill="#fff"/>
      <path id="Path_1450" data-name="Path 1450" d="M341.856,235.024l.217,2.2c.616-.019,1.248-.036,1.889-.052l-.218-2.218Q342.786,234.986,341.856,235.024Z" transform="translate(-322.353 -229.921)" fill="#fff"/>
      <path id="Path_1451" data-name="Path 1451" d="M314.276,236.579l.2,2.055c.584-.039,1.191-.076,1.837-.108l-.208-2.116c-.625.051-1.24.106-1.83.17Z" transform="translate(-300.857 -231.051)" fill="#fff"/>
      <path id="Path_1452" data-name="Path 1452" d="M467.069,231.386l.2,2.008q.981-.106,1.871-.245l-.2-2.043Q468.048,231.255,467.069,231.386Z" transform="translate(-419.943 -226.918)" fill="#fff"/>
      <path id="Path_1453" data-name="Path 1453" d="M439.422,234.35l.182,1.852c.644-.022,1.275-.046,1.887-.072l-.185-1.876Q440.392,234.314,439.422,234.35Z" transform="translate(-398.395 -229.372)" fill="#fff"/>
      <path id="Path_1454" data-name="Path 1454" d="M300.43,238.1l.188,1.911c.559-.071,1.184-.134,1.87-.191l-.2-2C301.643,237.9,301.026,238,300.43,238.1Z" transform="translate(-290.066 -232.151)" fill="#fff"/>
      <path id="Path_1455" data-name="Path 1455" d="M369.581,234.584l.217,2.2,1.863-.034-.214-2.177Q370.506,234.577,369.581,234.584Z" transform="translate(-343.961 -229.622)" fill="#fff"/>
      <path id="Path_1456" data-name="Path 1456" d="M355.872,234.71l.218,2.219,1.818-.039-.218-2.212Q356.772,234.69,355.872,234.71Z" transform="translate(-333.277 -229.702)" fill="#fff"/>
      <path id="Path_1457" data-name="Path 1457" d="M383.506,234.576l.212,2.155.679-.012,1.227-.022-.208-2.112C384.779,234.583,384.137,234.577,383.506,234.576Z" transform="translate(-354.814 -229.623)" fill="#fff"/>
      <path id="Path_1458" data-name="Path 1458" d="M509.325,219.972c-.072.033-.482.218-1.212.48l.172,1.748a15.271,15.271,0,0,0,1.618-.9l-.153-1.557C509.586,219.835,509.438,219.914,509.325,219.972Z" transform="translate(-451.933 -218.063)" fill="#fff"/>
      <path id="Path_1459" data-name="Path 1459" d="M425.912,234.864l-.372,0,.186,1.895q.942-.024,1.855-.053l-.183-1.856c-.487.01-.98.017-1.487.017Z" transform="translate(-387.576 -229.834)" fill="#fff"/>
      <path id="Path_1460" data-name="Path 1460" d="M411.485,234.771l.2,2,1.886-.042-.19-1.935Z" transform="translate(-376.621 -229.775)" fill="#fff"/>
      <path id="Path_1461" data-name="Path 1461" d="M286.645,240.6l.182,1.85c.415-.114.816-.219,1.19-.313.2-.05.424-.1.668-.143l-.183-1.862Q287.505,240.34,286.645,240.6Z" transform="translate(-279.321 -233.952)" fill="#fff"/>
      <path id="Path_1462" data-name="Path 1462" d="M253.447,258.749c.038.317.079.641.123.965.1-.079.217-.157.332-.234l-.108-1.1C253.641,258.531,253.525,258.657,253.447,258.749Z" transform="translate(-253.447 -248.179)" fill="#fff"/>
      <path id="Path_1463" data-name="Path 1463" d="M521.956,212.123a10.311,10.311,0,0,1-1.263.985l.141,1.434a5.81,5.81,0,0,0,1.107-1.14A2.9,2.9,0,0,0,521.956,212.123Z" transform="translate(-461.738 -212.123)" fill="#fff"/>
      <path id="Path_1464" data-name="Path 1464" d="M397.637,234.648l.205,2.084,1.842-.035-.2-2.036C398.865,234.656,398.254,234.652,397.637,234.648Z" transform="translate(-365.828 -229.679)" fill="#fff"/>
      <path id="Path_1465" data-name="Path 1465" d="M480.912,228.779l.2,2.048q.973-.187,1.831-.409l-.2-2.025q-.852.2-1.833.386Z" transform="translate(-430.733 -224.804)" fill="#fff"/>
      <path id="Path_1466" data-name="Path 1466" d="M273.343,244.677l.166,1.684c.593-.207,1.191-.4,1.777-.573l-.178-1.8C274.456,244.214,273.873,244.446,273.343,244.677Z" transform="translate(-268.954 -236.955)" fill="#fff"/>
      <path id="Path_1467" data-name="Path 1467" d="M494.565,225.249l.2,1.983c.659-.2,1.262-.416,1.809-.636l-.184-1.867c-.523.164-1.13.34-1.82.519Z" transform="translate(-441.374 -221.949)" fill="#fff"/>
      <path id="Path_1468" data-name="Path 1468" d="M260.089,250.623l.131,1.333c.553-.283,1.16-.55,1.794-.8l-.155-1.574A15.286,15.286,0,0,0,260.089,250.623Z" transform="translate(-258.623 -241.318)" fill="#fff"/>
    </g>
    <path id="Path_1469" data-name="Path 1469" d="M441.923,278.279c.01.023.02.043.03.06a3.215,3.215,0,0,0,.312.257l-.019-.173C442.14,278.374,442.023,278.327,441.923,278.279Z" transform="translate(-344.434 -216.89)" fill="#fff"/>
    <g id="Group_92" data-name="Group 92" transform="translate(58.205 58.275)">
      <path id="Path_1470" data-name="Path 1470" d="M289.534,289.992l.1.874c.5.049,1.019.09,1.581.113l-.1-.892Q290.325,290.056,289.534,289.992Z" transform="translate(-283.867 -284.294)" fill="#fff"/>
      <path id="Path_1471" data-name="Path 1471" d="M364.278,281.651l.083.74c.51-.126,1.02-.253,1.524-.391l-.081-.72Q365.051,281.474,364.278,281.651Z" transform="translate(-342.122 -277.504)" fill="#fff"/>
      <path id="Path_1472" data-name="Path 1472" d="M339.618,286.69l.092.819c.515-.081,1.03-.163,1.54-.255l-.092-.815Q340.4,286.57,339.618,286.69Z" transform="translate(-322.903 -281.525)" fill="#fff"/>
      <path id="Path_1473" data-name="Path 1473" d="M376.517,278.276l.078.692c.507-.15,1.014-.3,1.516-.462l-.076-.676Q377.293,278.058,376.517,278.276Z" transform="translate(-351.662 -274.815)" fill="#fff"/>
      <path id="Path_1474" data-name="Path 1474" d="M327.211,288.53l.094.837c.517-.06,1.036-.119,1.547-.191l-.094-.834Q327.993,288.445,327.211,288.53Z" transform="translate(-313.233 -283.008)" fill="#fff"/>
      <path id="Path_1475" data-name="Path 1475" d="M276.887,288.417l.088.784c.477.108,1.007.2,1.575.288l-.1-.847C277.931,288.579,277.408,288.506,276.887,288.417Z" transform="translate(-274.01 -283.066)" fill="#fff"/>
      <path id="Path_1476" data-name="Path 1476" d="M302.481,290.482c-.1,0-.2,0-.3,0l.1.889c.066,0,.125,0,.191,0,.439,0,.9-.011,1.375-.029l-.1-.885C303.329,290.471,302.906,290.482,302.481,290.482Z" transform="translate(-293.728 -284.658)" fill="#fff"/>
      <path id="Path_1477" data-name="Path 1477" d="M314.737,289.827l.1.876c.5-.032,1.017-.073,1.554-.126l-.1-.861Q315.521,289.783,314.737,289.827Z" transform="translate(-303.511 -284.079)" fill="#fff"/>
      <path id="Path_1478" data-name="Path 1478" d="M353.4,284.14c-.467.094-.946.187-1.434.278l.089.794c.513-.1,1.025-.207,1.532-.322l-.087-.771Z" transform="translate(-332.531 -279.716)" fill="#fff"/>
      <path id="Path_1479" data-name="Path 1479" d="M400.8,269.838l.066.586c.5-.2,1-.394,1.5-.609l-.063-.558Q401.6,269.538,400.8,269.838Z" transform="translate(-370.588 -268.132)" fill="#fff"/>
      <path id="Path_1480" data-name="Path 1480" d="M414.34,264.164c-.418.189-.921.409-1.489.649l.057.506c.45-.205.9-.4,1.349-.619Z" transform="translate(-379.981 -264.164)" fill="#fff"/>
      <path id="Path_1481" data-name="Path 1481" d="M263.847,285.461l.053.468a12.852,12.852,0,0,0,1.666.633l-.077-.69C264.938,285.753,264.391,285.615,263.847,285.461Z" transform="translate(-263.847 -280.763)" fill="#fff"/>
      <path id="Path_1482" data-name="Path 1482" d="M388.689,274.328l.073.646c.5-.175,1.009-.346,1.508-.535l-.07-.625C389.715,273.985,389.21,274.157,388.689,274.328Z" transform="translate(-361.149 -271.685)" fill="#fff"/>
    </g>
    <g id="Group_93" data-name="Group 93" transform="translate(46.117 40.589)">
      <path id="Path_1483" data-name="Path 1483" d="M327.29,199.3l.159,1.767q.881-.189,1.769-.368l-.161-1.784Q328.169,199.1,327.29,199.3Z" transform="translate(-301.206 -195.62)" fill="#fff"/>
      <path id="Path_1484" data-name="Path 1484" d="M340.669,196.58l.162,1.795q.884-.17,1.772-.331l-.163-1.81q-.889.167-1.771.346Z" transform="translate(-311.634 -193.533)" fill="#fff"/>
      <path id="Path_1485" data-name="Path 1485" d="M367.508,192.012l.165,1.836q.89-.137,1.778-.265l-.166-1.843Q368.4,191.871,367.508,192.012Z" transform="translate(-332.552 -190.031)" fill="#fff"/>
      <path id="Path_1486" data-name="Path 1486" d="M354.076,194.164l.164,1.817q.887-.153,1.775-.3l-.165-1.828Q354.961,194,354.076,194.164Z" transform="translate(-322.083 -191.68)" fill="#fff"/>
      <path id="Path_1487" data-name="Path 1487" d="M421.474,186.065l.163,1.811q.9-.081,1.788-.152l-.161-1.791Q422.375,185.993,421.474,186.065Z" transform="translate(-374.613 -185.504)" fill="#fff"/>
      <path id="Path_1488" data-name="Path 1488" d="M380.964,190.132l.166,1.844q.893-.123,1.781-.236l-.166-1.845Q381.855,190.009,380.964,190.132Z" transform="translate(-343.039 -188.593)" fill="#fff"/>
      <path id="Path_1489" data-name="Path 1489" d="M407.947,187.157l.165,1.835q.9-.095,1.786-.18l-.164-1.823Q408.844,187.068,407.947,187.157Z" transform="translate(-364.07 -186.328)" fill="#fff"/>
      <path id="Path_1490" data-name="Path 1490" d="M394.444,188.519l.166,1.844q.9-.108,1.783-.207l-.166-1.839Q395.338,188.412,394.444,188.519Z" transform="translate(-353.546 -187.362)" fill="#fff"/>
      <path id="Path_1491" data-name="Path 1491" d="M260.925,218.442l.147,1.632c.569-.232,1.147-.459,1.741-.68l-.147-1.632C262.076,217.984,261.494,218.21,260.925,218.442Z" transform="translate(-249.482 -210.312)" fill="#fff"/>
      <path id="Path_1492" data-name="Path 1492" d="M221.911,237.568l.148,1.648c.5-.348,1.062-.715,1.7-1.1l-.15-1.668C223.014,236.812,222.446,237.186,221.911,237.568Z" transform="translate(-219.074 -224.874)" fill="#fff"/>
      <path id="Path_1493" data-name="Path 1493" d="M234.788,230.059l.151,1.672c.537-.306,1.115-.622,1.743-.952l-.149-1.658C235.93,229.427,235.35,229.74,234.788,230.059Z" transform="translate(-229.11 -219.165)" fill="#fff"/>
      <path id="Path_1494" data-name="Path 1494" d="M209.461,246.837l.093,1.033.117.6a13.026,13.026,0,0,1,1.555-1.442l-.148-1.64A20.04,20.04,0,0,0,209.461,246.837Z" transform="translate(-209.371 -231.845)" fill="#fff"/>
      <path id="Path_1495" data-name="Path 1495" d="M247.932,223.835l.148,1.647c.552-.268,1.117-.531,1.7-.785l-.147-1.628C249.056,223.319,248.485,223.574,247.932,223.835Z" transform="translate(-239.355 -214.447)" fill="#fff"/>
      <path id="Path_1496" data-name="Path 1496" d="M435.025,185.209l.16,1.778q.908-.067,1.791-.124l-.159-1.759c-.585.032-1.184.067-1.792.105Z" transform="translate(-385.175 -184.858)" fill="#fff"/>
      <path id="Path_1497" data-name="Path 1497" d="M300.624,205.708l.153,1.7q.872-.236,1.761-.46l-.155-1.721q-.888.234-1.759.48Z" transform="translate(-280.423 -200.543)" fill="#fff"/>
      <path id="Path_1498" data-name="Path 1498" d="M287.344,209.466l.151,1.672q.867-.265,1.755-.518l-.152-1.691Q288.211,209.191,287.344,209.466Z" transform="translate(-270.073 -203.428)" fill="#fff"/>
      <path id="Path_1499" data-name="Path 1499" d="M274.108,213.689l.148,1.646q.861-.3,1.749-.589l-.149-1.657c-.591.2-1.175.4-1.748.6Z" transform="translate(-259.757 -206.669)" fill="#fff"/>
      <path id="Path_1500" data-name="Path 1500" d="M313.941,202.335l.156,1.731q.876-.211,1.765-.41l-.158-1.75Q314.817,202.114,313.941,202.335Z" transform="translate(-290.802 -197.952)" fill="#fff"/>
      <path id="Path_1501" data-name="Path 1501" d="M476.612,183.99c-.266,0-.543,0-.818,0l.154,1.7c.578-.009,1.143-.015,1.68-.015h.121L477.6,184c-.321,0-.64-.007-.984-.007Z" transform="translate(-416.949 -183.99)" fill="#fff"/>
      <path id="Path_1502" data-name="Path 1502" d="M518.7,188.762c-.1-.548-.209-1.12-.3-1.592a4.856,4.856,0,0,0-1.457-.487l.149,1.649A9.331,9.331,0,0,1,518.7,188.762Z" transform="translate(-449.022 -186.089)" fill="#fff"/>
      <path id="Path_1503" data-name="Path 1503" d="M462.181,184.125l.156,1.726c.614-.023,1.215-.043,1.8-.058l-.154-1.712C463.4,184.092,462.8,184.106,462.181,184.125Z" transform="translate(-406.34 -184.061)" fill="#fff"/>
      <path id="Path_1504" data-name="Path 1504" d="M503.139,184.813l.15,1.669c.216.02.423.042.608.066.253.033.507.063.76.092l.453.055-.152-1.686C504.45,184.937,503.845,184.87,503.139,184.813Z" transform="translate(-438.263 -184.631)" fill="#fff"/>
      <path id="Path_1505" data-name="Path 1505" d="M448.594,184.547l.158,1.749q.914-.052,1.794-.093l-.156-1.735C449.806,184.49,449.2,184.517,448.594,184.547Z" transform="translate(-395.75 -184.362)" fill="#fff"/>
      <path id="Path_1506" data-name="Path 1506" d="M489.44,184.12l.151,1.676q.987.017,1.807.06l-.15-1.664C490.7,184.161,490.1,184.137,489.44,184.12Z" transform="translate(-427.586 -184.091)" fill="#fff"/>
      <path id="Path_1507" data-name="Path 1507" d="M209.051,252.034l.184.947-.093-1.033C209.113,251.977,209.08,252,209.051,252.034Z" transform="translate(-209.051 -236.956)" fill="#fff"/>
    </g>
  </g>
</svg>
