<svg xmlns="http://www.w3.org/2000/svg" xmlns:xlink="http://www.w3.org/1999/xlink" width="265.44" height="391.049" viewBox="0 0 265.44 391.049">
  <defs>
    <linearGradient id="linear-gradient" x1="0.5" x2="0.5" y2="1" gradientUnits="objectBoundingBox">
      <stop offset="0" stop-color="#df007f"/>
      <stop offset="1" stop-color="#8f2ba8"/>
    </linearGradient>
  </defs>
  <path id="_2" data-name="2" d="M150.851-390.549a255.665,255.665,0,0,1,43.508,3.388,162.265,162.265,0,0,1,18.274,4.239,121.1,121.1,0,0,1,15.955,5.941,110.214,110.214,0,0,1,25.659,16.076,86.979,86.979,0,0,1,9.9,9.917,81.287,81.287,0,0,1,7.937,11.169A98.242,98.242,0,0,1,282.5-314.75a111.131,111.131,0,0,1,3.472,28.073,86.9,86.9,0,0,1-2.531,20.722,99.089,99.089,0,0,1-7.588,20.444,128.757,128.757,0,0,1-12.632,20.156,180.016,180.016,0,0,1-17.666,19.87,605.576,605.576,0,0,1-47.669,41.429c-18.252,14.412-39.239,29.71-62.376,45.467-8.769,6.377-19.278,14.259-31.236,23.427C92.72-86.3,81.76-77.509,71.684-69.014H296.192V.5H30.752V-50.7l.151-.147C45.259-64.8,59.513-78.851,73.269-92.607l39.362-39.363c14.345-14.744,27.049-28.862,37.757-41.961a350.317,350.317,0,0,0,26.781-36.983,149.8,149.8,0,0,0,9.3-17.539,138.729,138.729,0,0,0,6.643-18.171,136.113,136.113,0,0,0,3.986-18.806,141.8,141.8,0,0,0,1.329-19.445,172.091,172.091,0,0,0-3.744-37.378,114.279,114.279,0,0,0-4.675-15.689,91.239,91.239,0,0,0-6.537-13.691A57.28,57.28,0,0,0,175.1-362.71a46.316,46.316,0,0,0-10.219-7.9,46.95,46.95,0,0,0-12.079-4.738,59.334,59.334,0,0,0-13.968-1.582,68.5,68.5,0,0,0-17.825,2.312,67.459,67.459,0,0,0-16.48,6.935A60.042,60.042,0,0,0,89.7-355.088a101.848,101.848,0,0,0-12.932,19.362l-28.986,56.16h-6.84l4.246-86.141.239-.136a156.4,156.4,0,0,1,20.274-9.5,242.007,242.007,0,0,1,24.617-7.98,202.16,202.16,0,0,1,28.543-5.423A271.288,271.288,0,0,1,150.851-390.549ZM295.192-68.014H68.952l1.042-.882c10.374-8.778,21.7-17.882,33.675-27.06s22.486-17.064,31.262-23.447l.013-.009c23.12-15.746,44.09-31.031,62.325-45.43a604.583,604.583,0,0,0,47.59-41.359,179,179,0,0,0,17.568-19.758,127.756,127.756,0,0,0,12.535-20,98.086,98.086,0,0,0,7.512-20.237,85.892,85.892,0,0,0,2.5-20.484,110.131,110.131,0,0,0-3.439-27.82,97.238,97.238,0,0,0-10.314-24.814,80.28,80.28,0,0,0-7.839-11.031,85.976,85.976,0,0,0-9.784-9.8,109.217,109.217,0,0,0-25.426-15.927,120.085,120.085,0,0,0-15.823-5.891,161.247,161.247,0,0,0-18.161-4.212,254.665,254.665,0,0,0-43.336-3.373,270.3,270.3,0,0,0-31.869,1.8,201.168,201.168,0,0,0-28.4,5.4,241,241,0,0,0-24.515,7.946,155.889,155.889,0,0,0-19.9,9.3l-4.168,84.542h5.18l28.708-55.622a102.855,102.855,0,0,1,13.063-19.556,61.037,61.037,0,0,1,15.075-12.8,68.459,68.459,0,0,1,16.725-7.038,69.5,69.5,0,0,1,18.085-2.346,60.331,60.331,0,0,1,14.2,1.611,47.952,47.952,0,0,1,12.336,4.84,47.318,47.318,0,0,1,10.44,8.067,58.28,58.28,0,0,1,8.525,11.271,92.227,92.227,0,0,1,6.61,13.842,115.276,115.276,0,0,1,4.716,15.826,173.085,173.085,0,0,1,3.768,37.6,142.791,142.791,0,0,1-1.338,19.583,137.108,137.108,0,0,1-4.015,18.944,139.719,139.719,0,0,1-6.691,18.3,150.8,150.8,0,0,1-9.365,17.657,351.3,351.3,0,0,1-26.858,37.09c-10.727,13.122-23.45,27.262-37.817,42.027l0,0L73.976-91.9C60.265-78.189,46.059-64.184,31.752-50.273V-.5h263.44Z" transform="translate(-30.752 390.549)" fill="url(#linear-gradient)"/>
</svg>
