<svg xmlns="http://www.w3.org/2000/svg" xmlns:xlink="http://www.w3.org/1999/xlink" width="258.42" height="392.096" viewBox="0 0 258.42 392.096">
  <defs>
    <linearGradient id="linear-gradient" x1="0.5" x2="0.5" y2="1" gradientUnits="objectBoundingBox">
      <stop offset="0" stop-color="#8f2ba8"/>
      <stop offset="1" stop-color="#e13785"/>
    </linearGradient>
  </defs>
  <path id="_3" data-name="3" d="M149.606,9.335a267.36,267.36,0,0,1-35.923-2.213A146.892,146.892,0,0,1,84.944.472,468.1,468.1,0,0,1,35.71-20.166l-.308-.15.029-.341,6.518-77.028H48.6l.142.261L74.652-49.718A114.766,114.766,0,0,0,88.8-29.45,81.59,81.59,0,0,0,105.408-15a70.575,70.575,0,0,0,19.081,8.663,78.976,78.976,0,0,0,21.583,2.889,56.885,56.885,0,0,0,12.79-1.4,49.192,49.192,0,0,0,11.5-4.209,51.077,51.077,0,0,0,10.225-7.018,62.883,62.883,0,0,0,8.966-9.843,61.983,61.983,0,0,0,7.284-13.165,102.343,102.343,0,0,0,5.219-17.052,170.478,170.478,0,0,0,3.138-20.94c.695-7.594,1.047-15.945,1.047-24.821,0-15.4-1.185-28.819-3.523-39.875a94.23,94.23,0,0,0-4.393-14.995,57.376,57.376,0,0,0-6.13-11.7,41.521,41.521,0,0,0-8.221-8.785,45.455,45.455,0,0,0-10.705-6.28,61.294,61.294,0,0,0-13.218-3.778,92.288,92.288,0,0,0-15.744-1.263h-35.84v-12.78h31.717a84.067,84.067,0,0,0,14.436-1.171,57.554,57.554,0,0,0,12.244-3.5,44.12,44.12,0,0,0,10.065-5.824,41.181,41.181,0,0,0,7.911-8.147,50.635,50.635,0,0,0,5.995-11.045,87.84,87.84,0,0,0,4.3-14.531c2.289-10.812,3.45-24.1,3.45-39.507,0-15.013-1.136-28.032-3.376-38.7a89.418,89.418,0,0,0-4.209-14.4,52.938,52.938,0,0,0-5.87-11.1,51.3,51.3,0,0,0-7.254-8.294,41.1,41.1,0,0,0-8.328-5.91,39.334,39.334,0,0,0-9.415-3.544,45.678,45.678,0,0,0-10.523-1.183A62.18,62.18,0,0,0,129.228-365a51.028,51.028,0,0,0-16.7,9.625,105.809,105.809,0,0,0-13.556,14.069A107.369,107.369,0,0,0,88.2-324.893L61.539-275.121l-6.7-.671.033-.483,5.911-86.886.278-.122a253.92,253.92,0,0,1,42.2-13.87,195.464,195.464,0,0,1,24.728-4.208,259.24,259.24,0,0,1,27.515-1.4,239.8,239.8,0,0,1,29.125,1.679,167.934,167.934,0,0,1,25.421,5.04,121.7,121.7,0,0,1,21.717,8.41,95.911,95.911,0,0,1,18,11.787,100.608,100.608,0,0,1,14.114,14.3,83.662,83.662,0,0,1,10.092,15.98,80.517,80.517,0,0,1,6.057,17.651,90.656,90.656,0,0,1,2.018,19.3,67.2,67.2,0,0,1-1.558,14.372,71.989,71.989,0,0,1-4.671,14.031,86.874,86.874,0,0,1-7.775,13.681,113.655,113.655,0,0,1-10.871,13.33,91.349,91.349,0,0,1-14.214,12.16,119.073,119.073,0,0,1-17.745,10.111,164.791,164.791,0,0,1-21.269,8.068c-6.65,2.036-13.833,3.837-21.395,5.368a239.7,239.7,0,0,1,24.589,3.7,165.521,165.521,0,0,1,23.927,6.758,114.165,114.165,0,0,1,19.819,9.5,84.855,84.855,0,0,1,15.7,12.258A99.337,99.337,0,0,1,278.5-150.955a87.968,87.968,0,0,1,8.515,15.735,87.906,87.906,0,0,1,5.109,17.142,99.147,99.147,0,0,1,1.7,18.537,102.269,102.269,0,0,1-1.091,15.02,94.23,94.23,0,0,1-3.275,14.286A93.241,93.241,0,0,1,284-56.69a99.22,99.22,0,0,1-7.64,12.8A102.446,102.446,0,0,1,266.7-32.124a108.815,108.815,0,0,1-11.5,10.429A132.654,132.654,0,0,1,226.672-4.843a147.337,147.337,0,0,1-16.9,6.206,173.378,173.378,0,0,1-18.478,4.43A231.76,231.76,0,0,1,149.606,9.335ZM36.456-20.914A467.05,467.05,0,0,0,85.277-.471a145.9,145.9,0,0,0,28.542,6.6,266.365,266.365,0,0,0,35.787,2.2,230.762,230.762,0,0,0,41.508-3.526A172.37,172.37,0,0,0,209.485.4a146.317,146.317,0,0,0,16.784-6.163,131.655,131.655,0,0,0,28.312-16.722,107.806,107.806,0,0,0,11.4-10.333,101.442,101.442,0,0,0,9.561-11.649A98.212,98.212,0,0,0,283.1-57.135a92.225,92.225,0,0,0,5.4-13.4,93.229,93.229,0,0,0,3.24-14.134,101.277,101.277,0,0,0,1.081-14.872,98.147,98.147,0,0,0-1.685-18.349,86.907,86.907,0,0,0-5.051-16.947,86.966,86.966,0,0,0-8.418-15.556,98.342,98.342,0,0,0-11.794-14.174,83.858,83.858,0,0,0-15.516-12.112,113.161,113.161,0,0,0-19.645-9.419,164.519,164.519,0,0,0-23.782-6.716,244,244,0,0,0-27.92-4l-3.6-.318,3.555-.671a231.84,231.84,0,0,0,24.684-6.006,163.792,163.792,0,0,0,21.139-8.019,118.075,118.075,0,0,0,17.6-10.025,90.35,90.35,0,0,0,14.058-12.026,112.665,112.665,0,0,0,10.775-13.212,85.872,85.872,0,0,0,7.686-13.523,70.987,70.987,0,0,0,4.606-13.836,66.2,66.2,0,0,0,1.535-14.158,89.655,89.655,0,0,0-1.995-19.091,79.513,79.513,0,0,0-5.981-17.431,82.663,82.663,0,0,0-9.971-15.789,99.606,99.606,0,0,0-13.974-14.156,94.907,94.907,0,0,0-17.815-11.663,120.7,120.7,0,0,0-21.538-8.34A166.923,166.923,0,0,0,184.5-380.09a238.793,238.793,0,0,0-29-1.671,258.246,258.246,0,0,0-27.409,1.4,194.453,194.453,0,0,0-24.6,4.186,253.344,253.344,0,0,0-41.752,13.692L55.9-276.69l5.075.508L87.32-325.364a108.375,108.375,0,0,1,10.873-16.568,106.816,106.816,0,0,1,13.685-14.2,52.024,52.024,0,0,1,17.023-9.812,63.175,63.175,0,0,1,20.705-3.267A46.676,46.676,0,0,1,160.36-368a40.334,40.334,0,0,1,9.654,3.634,42.094,42.094,0,0,1,8.532,6.054,52.306,52.306,0,0,1,7.4,8.456,53.936,53.936,0,0,1,5.984,11.314,90.418,90.418,0,0,1,4.258,14.567c2.254,10.733,3.4,23.822,3.4,38.9,0,15.473-1.168,28.834-3.471,39.714a88.848,88.848,0,0,1-4.351,14.7,51.63,51.63,0,0,1-6.116,11.263,42.181,42.181,0,0,1-8.1,8.345,45.119,45.119,0,0,1-10.293,5.957,58.557,58.557,0,0,1-12.457,3.565,85.068,85.068,0,0,1-14.609,1.186H109.465v10.78h34.84a93.287,93.287,0,0,1,15.915,1.277,62.293,62.293,0,0,1,13.434,3.842,46.454,46.454,0,0,1,10.94,6.42,42.522,42.522,0,0,1,8.419,9,58.373,58.373,0,0,1,6.239,11.9,95.229,95.229,0,0,1,4.442,15.155c2.352,11.124,3.545,24.609,3.545,40.082,0,8.907-.354,17.288-1.051,24.912a171.48,171.48,0,0,1-3.157,21.063,103.342,103.342,0,0,1-5.272,17.22,62.977,62.977,0,0,1-7.4,13.377,63.885,63.885,0,0,1-9.109,10A52.077,52.077,0,0,1,170.819-8.17a50.193,50.193,0,0,1-11.731,4.295,57.886,57.886,0,0,1-13.015,1.43,79.974,79.974,0,0,1-21.856-2.927,71.572,71.572,0,0,1-19.351-8.786A82.59,82.59,0,0,1,88.049-28.787,115.765,115.765,0,0,1,73.777-49.233l0,0L48-96.685H42.867Z" transform="translate(-35.402 382.761)" fill="url(#linear-gradient)"/>
</svg>
