<svg xmlns="http://www.w3.org/2000/svg" width="202.046" height="48.913" viewBox="0 0 202.046 48.913">
  <g id="Layer_2" data-name="Layer 2" transform="translate(0 0)">
    <g id="Layer_1" data-name="Layer 1" transform="translate(0 0.001)">
      <path id="Path_151" data-name="Path 151" d="M198.64,38.6h1.624l3.783,11.024,3.63-11.061h1.23l3.63,11.061,3.78-11.024h1.564l-4.734,13.33h-1.252L208.262,41.2l-3.648,10.726h-1.252Z" transform="translate(-136.485 -26.494)" fill="#fff"/>
      <path id="Path_152" data-name="Path 152" d="M266,44.884v-.038a6.742,6.742,0,1,1,13.483-.038v.038A6.742,6.742,0,1,1,266,44.884Zm11.95,0v-.038a5.259,5.259,0,0,0-5.219-5.463,5.2,5.2,0,0,0-5.2,5.41v.038a5.259,5.259,0,0,0,5.219,5.463,5.193,5.193,0,0,0,5.182-5.41Z" transform="translate(-182.767 -26.11)" fill="#fff"/>
      <path id="Path_153" data-name="Path 153" d="M320.39,38.68h5.692A5.191,5.191,0,0,1,329.837,40a3.646,3.646,0,0,1,1.023,2.61v.038c0,2.19-1.514,3.479-3.6,3.858l4.068,5.407H329.5l-3.83-5.144h-3.783v5.15H320.39Zm5.56,6.749c1.984,0,3.4-1.02,3.4-2.722V42.67c0-1.627-1.252-2.61-3.383-2.61h-4.087v5.369Z" transform="translate(-220.138 -26.577)" fill="#fff"/>
      <path id="Path_154" data-name="Path 154" d="M365.29,38.68h1.492v7.9l7.6-7.9h1.927l-5.673,5.786,5.92,7.457H374.68L369.6,45.5l-2.816,2.857v3.561H365.29Z" transform="translate(-250.989 -26.577)" fill="#fff"/>
      <path id="Path_155" data-name="Path 155" d="M431.314,50.337H427.4V48.976h3.914v-3.9h1.417v3.9h3.93v1.361h-3.93v3.9h-1.417Z" transform="translate(-293.664 -30.974)" fill="#fff"/>
      <path id="Path_156" data-name="Path 156" d="M487.58,38.68h4.953c2.988,0,4.953,1.59,4.953,4.2v.038c0,2.857-2.381,4.331-5.2,4.331h-3.214v4.678h-1.5Zm4.766,7.2c2.19,0,3.63-1.173,3.63-2.91v-.038c0-1.893-1.417-2.876-3.555-2.876h-3.345v5.829Z" transform="translate(-335.014 -26.577)" fill="#fff"/>
      <path id="Path_157" data-name="Path 157" d="M529.15,38.68h1.5V50.536h7.447v1.386H529.15Z" transform="translate(-363.576 -26.577)" fill="#fff"/>
      <path id="Path_158" data-name="Path 158" d="M570.149,38.38h1.4l6.033,13.336h-1.615l-1.543-3.5h-7.2l-1.586,3.5h-1.53Zm3.689,8.47-3.007-6.731-3.026,6.731Z" transform="translate(-387.597 -26.371)" fill="#fff"/>
      <path id="Path_159" data-name="Path 159" d="M611.211,46.678l-5.5-8h1.815l4.462,6.618,4.5-6.618h1.74l-5.5,7.979v5.263h-1.514Z" transform="translate(-416.18 -26.577)" fill="#fff"/>
      <path id="Path_160" data-name="Path 160" d="M310.118,105.891l-2.028-2.951h.67l1.646,2.441,1.658-2.441h.626l-2.028,2.941v1.94h-.56Z" transform="translate(-211.687 -70.73)" fill="#fff"/>
      <path id="Path_161" data-name="Path 161" d="M322.2,108.707h0a1.877,1.877,0,1,1,3.755,0h0a1.877,1.877,0,0,1-1.893,1.877,1.849,1.849,0,0,1-1.862-1.877Zm3.21,0h0a1.364,1.364,0,0,0-1.342-1.408,1.33,1.33,0,0,0-1.317,1.4h0a1.355,1.355,0,0,0,1.333,1.4,1.333,1.333,0,0,0,1.327-1.389Z" transform="translate(-221.382 -73.402)" fill="#fff"/>
      <path id="Path_162" data-name="Path 162" d="M337.14,109.244V107h.538v2.106a.961.961,0,0,0,1,1.089,1.067,1.067,0,0,0,1.083-1.133V107h.529v3.6h-.529v-.626a1.374,1.374,0,0,1-1.236.707A1.315,1.315,0,0,1,337.14,109.244Z" transform="translate(-231.647 -73.519)" fill="#fff"/>
      <path id="Path_163" data-name="Path 163" d="M351.05,106.849h.538v.939a1.565,1.565,0,0,1,1.471-1.008v.582h-.041a1.452,1.452,0,0,0-1.43,1.652v1.436h-.538Z" transform="translate(-241.205 -73.368)" fill="#fff"/>
      <path id="Path_164" data-name="Path 164" d="M367.624,103.447H366v-.507h3.836v.507H368.19v4.381h-.557Z" transform="translate(-251.477 -70.73)" fill="#fff"/>
      <path id="Path_165" data-name="Path 165" d="M380.55,102.6h.626v.595h-.626Zm.034,1.383h.538v3.6h-.538Z" transform="translate(-261.474 -70.496)" fill="#fff"/>
      <path id="Path_166" data-name="Path 166" d="M386.356,106.868h.538v.626a1.317,1.317,0,0,1,1.164-.685,1.22,1.22,0,0,1,1.158.72,1.439,1.439,0,0,1,1.27-.72,1.3,1.3,0,0,1,1.339,1.452v2.231h-.538v-2.106c0-.7-.347-1.089-.939-1.089s-.979.391-.979,1.1v2.078h-.538v-2.121c0-.676-.354-1.073-.939-1.073a1.045,1.045,0,0,0-1,1.139v2.056h-.538Z" transform="translate(-265.459 -73.387)" fill="#fff"/>
      <path id="Path_167" data-name="Path 167" d="M406.853,108.687h0a1.78,1.78,0,0,1,1.73-1.877,1.717,1.717,0,0,1,1.68,1.906,1.513,1.513,0,0,1,0,.172H407.4a1.252,1.252,0,0,0,1.27,1.22,1.486,1.486,0,0,0,1.136-.507l.335.313a1.877,1.877,0,0,1-1.486.676,1.793,1.793,0,0,1-1.8-1.9Zm2.869-.21a1.19,1.19,0,0,0-1.152-1.227,1.247,1.247,0,0,0-1.173,1.227Z" transform="translate(-279.544 -73.389)" fill="#fff"/>
      <path id="Path_168" data-name="Path 168" d="M426.6,109.468h0c0-.76.626-1.164,1.539-1.164a3.833,3.833,0,0,1,1.111.153v-.125c0-.648-.4-.983-1.076-.983a2.535,2.535,0,0,0-1.1.263l-.16-.438a2.976,2.976,0,0,1,1.311-.313,1.583,1.583,0,0,1,1.167.4,1.427,1.427,0,0,1,.369,1.054v2.19h-.516v-.535a1.565,1.565,0,0,1-1.3.626A1.219,1.219,0,0,1,426.6,109.468Zm2.657-.278v-.35a3.821,3.821,0,0,0-1.061-.153c-.676,0-1.051.294-1.051.748h0c0,.454.416.72.9.72A1.075,1.075,0,0,0,429.257,109.189Z" transform="translate(-293.115 -73.421)" fill="#fff"/>
      <path id="Path_169" data-name="Path 169" d="M440.38,106.826h.535v.626a1.364,1.364,0,0,1,1.252-.7,1.315,1.315,0,0,1,1.38,1.442v2.24h-.535v-2.106a.962.962,0,0,0-1-1.089,1.061,1.061,0,0,0-1.083,1.13v2.065H440.4Z" transform="translate(-302.583 -73.345)" fill="#fff"/>
      <path id="Path_170" data-name="Path 170" d="M453.433,105.561h0a1.771,1.771,0,0,1,1.724-1.877,1.627,1.627,0,0,1,1.38.767v-2.19h.538v5.091h-.538v-.726a1.618,1.618,0,0,1-1.38.8,1.762,1.762,0,0,1-1.724-1.868Zm3.129,0h0a1.339,1.339,0,0,0-1.3-1.389,1.274,1.274,0,0,0-1.27,1.389h0a1.3,1.3,0,0,0,1.27,1.4,1.349,1.349,0,0,0,1.3-1.4Z" transform="translate(-311.549 -70.262)" fill="#fff"/>
      <path id="Path_171" data-name="Path 171" d="M474.87,107.013l.354-.4a2.319,2.319,0,0,0,1.674.692c.657,0,1.089-.347,1.089-.829h0c0-.454-.244-.71-1.27-.939-1.123-.244-1.64-.607-1.64-1.408h0a1.444,1.444,0,0,1,1.605-1.333,2.553,2.553,0,0,1,1.718.6l-.313.426a2.146,2.146,0,0,0-1.408-.529c-.626,0-1.039.347-1.039.785h0c0,.46.25.72,1.324.939s1.59.626,1.59,1.383h0c0,.839-.7,1.38-1.665,1.38a2.857,2.857,0,0,1-2.018-.77Z" transform="translate(-326.281 -70.631)" fill="#fff"/>
      <path id="Path_172" data-name="Path 172" d="M489.88,106.828h.535v.723a1.627,1.627,0,0,1,1.383-.8,1.758,1.758,0,0,1,1.721,1.877h0A1.765,1.765,0,0,1,491.8,110.5a1.627,1.627,0,0,1-1.383-.77v1.809h-.535Zm3.088,1.812h0a1.3,1.3,0,0,0-1.27-1.4,1.342,1.342,0,0,0-1.3,1.389h0a1.339,1.339,0,0,0,1.3,1.4,1.265,1.265,0,0,0,1.27-1.383Z" transform="translate(-336.594 -73.347)" fill="#fff"/>
      <path id="Path_173" data-name="Path 173" d="M503.81,109.467h0c0-.76.626-1.164,1.543-1.164a3.811,3.811,0,0,1,1.108.153v-.125c0-.648-.4-.983-1.073-.983a2.5,2.5,0,0,0-1.1.263l-.16-.438a2.976,2.976,0,0,1,1.311-.313,1.565,1.565,0,0,1,1.164.4,1.427,1.427,0,0,1,.369,1.054v2.19h-.516v-.535a1.564,1.564,0,0,1-1.3.626A1.224,1.224,0,0,1,503.81,109.467Zm2.657-.278v-.35a3.8,3.8,0,0,0-1.058-.153c-.679,0-1.055.294-1.055.748h0c0,.454.419.72.907.72A1.072,1.072,0,0,0,506.467,109.188Z" transform="translate(-346.165 -73.42)" fill="#fff"/>
      <path id="Path_174" data-name="Path 174" d="M516.88,108.67h0a1.877,1.877,0,0,1,3.292-1.252l-.357.366a1.452,1.452,0,0,0-1.1-.544,1.33,1.33,0,0,0-1.289,1.4h0a1.346,1.346,0,0,0,1.324,1.4,1.493,1.493,0,0,0,1.1-.538l.341.313a1.877,1.877,0,0,1-3.32-1.173Z" transform="translate(-355.145 -73.365)" fill="#fff"/>
      <path id="Path_175" data-name="Path 175" d="M529.273,108.687h0A1.78,1.78,0,0,1,531,106.81a1.719,1.719,0,0,1,1.683,1.906,1.006,1.006,0,0,1,0,.172h-2.873a1.252,1.252,0,0,0,1.27,1.22,1.5,1.5,0,0,0,1.139-.507l.335.313a1.878,1.878,0,0,1-1.486.676,1.793,1.793,0,0,1-1.8-1.9Zm2.866-.21a1.188,1.188,0,0,0-1.152-1.227,1.247,1.247,0,0,0-1.173,1.227Z" transform="translate(-363.658 -73.389)" fill="#fff"/>
      <path id="Path_176" data-name="Path 176" d="M14.77,15.174H15.6l1.937,5.632L19.4,15.14h.626l1.865,5.682,1.937-5.632h.8l-2.422,6.815H21.56L19.7,16.5l-1.877,5.5H17.2Z" transform="translate(-10.148 -10.403)" fill="#fff"/>
      <path id="Path_177" data-name="Path 177" d="M124.33,120.51h2.538c1.53,0,2.538.814,2.538,2.15v.019c0,1.464-1.22,2.219-2.663,2.219h-1.649v2.394h-.763Zm2.441,3.689c1.123,0,1.859-.6,1.859-1.489v-.022c0-.967-.726-1.471-1.821-1.471h-1.715V124.2Z" transform="translate(-85.426 -82.802)" fill="#fff"/>
      <path id="Path_178" data-name="Path 178" d="M72.582,73.481H70.57v-.7h2.012V70.79h.729v1.993h2v.7h-2v2h-.729Z" transform="translate(-48.488 -48.639)" fill="#fff"/>
      <path id="Path_179" data-name="Path 179" d="M48.913,48.913H0V0H48.913ZM1.3,47.609h46.31V1.3H1.3Z" fill="#fff"/>
      <rect id="Rectangle_16" data-name="Rectangle 16" width="11.512" height="0.325" transform="translate(27.727 20.879) rotate(-45)" fill="#fff"/>
      <rect id="Rectangle_17" data-name="Rectangle 17" width="11.509" height="0.325" transform="translate(12.663 35.951) rotate(-45.05)" fill="#fff"/>
    </g>
  </g>
</svg>
