<svg xmlns="http://www.w3.org/2000/svg" xmlns:xlink="http://www.w3.org/1999/xlink" width="500" zoomAndPan="magnify" viewBox="0 0 375 374.999991" height="500" preserveAspectRatio="xMidYMid meet" version="1.0"><defs><g/><clipPath id="aa8ca5da7c"><path d="M 52 169 L 97.675781 169 L 97.675781 214.527344 L 52 214.527344 Z M 52 169 " clip-rule="nonzero"/></clipPath></defs><rect x="-37.5" width="450" fill="#ffffff" y="-37.499999" height="449.999989" fill-opacity="1"/><rect x="-37.5" width="450" fill="#ffffff" y="-37.499999" height="449.999989" fill-opacity="1"/><rect x="-37.5" width="450" fill="#000000" y="-37.499999" height="449.999989" fill-opacity="1"/><g clip-path="url(#aa8ca5da7c)"><path fill="#ffffff" d="M 61.054688 206.289062 L 61.574219 206.800781 L 61.625 206.855469 C 63.238281 208.523438 63.21875 211.210938 61.574219 212.859375 C 59.925781 214.503906 57.238281 214.523438 55.570312 212.910156 L 55.519531 212.859375 L 55 212.347656 L 53.589844 210.929688 C 51.925781 209.265625 51.925781 206.542969 53.589844 204.871094 C 55.253906 203.207031 57.980469 203.207031 59.644531 204.871094 Z M 89.617188 182.855469 L 95.972656 176.5 C 97.636719 174.835938 97.636719 172.113281 95.972656 170.441406 C 94.304688 168.777344 91.578125 168.777344 89.917969 170.441406 L 83.5625 176.796875 L 80.535156 179.828125 C 78.871094 181.492188 78.871094 184.214844 80.535156 185.882812 L 83.5625 188.914062 L 84.101562 189.449219 L 89.957031 195.304688 C 91.621094 196.96875 94.34375 196.96875 96.011719 195.304688 C 97.675781 193.640625 97.675781 190.910156 96.011719 189.246094 L 90.160156 183.390625 Z M 53.832031 170.484375 L 53.832031 170.476562 C 55.496094 168.8125 58.222656 168.8125 59.886719 170.476562 L 95.933594 206.535156 C 97.601562 208.199219 97.601562 210.929688 95.933594 212.59375 C 94.269531 214.257812 91.546875 214.257812 89.875 212.59375 L 53.832031 176.535156 C 52.167969 174.871094 52.167969 172.148438 53.832031 170.484375 Z M 53.78125 187.742188 C 55.441406 186.078125 58.164062 186.078125 59.835938 187.742188 L 63.9375 191.847656 L 72.820312 200.734375 L 78.675781 206.589844 C 80.339844 208.253906 80.339844 210.980469 78.675781 212.644531 C 77.003906 214.308594 74.28125 214.308594 72.621094 212.644531 L 57.882812 197.90625 L 53.78125 193.800781 C 52.117188 192.136719 52.117188 189.40625 53.78125 187.742188 Z M 53.78125 187.742188 " fill-opacity="1" fill-rule="evenodd"/></g><g fill="#ffffff" fill-opacity="1"><g transform="translate(109.980314, 202.836017)"><g><path d="M 2.578125 0 L 2.578125 -26.59375 L 12.34375 -26.59375 C 14.46875 -26.59375 16.21875 -26.226562 17.59375 -25.5 C 18.976562 -24.78125 20.015625 -23.804688 20.703125 -22.578125 C 21.390625 -21.347656 21.734375 -19.988281 21.734375 -18.5 C 21.734375 -16.875 21.304688 -15.390625 20.453125 -14.046875 C 19.609375 -12.710938 18.285156 -11.738281 16.484375 -11.125 L 22 0 L 16.40625 0 L 11.46875 -10.484375 L 7.4375 -10.484375 L 7.4375 0 Z M 7.4375 -14.046875 L 12.046875 -14.046875 C 13.660156 -14.046875 14.847656 -14.4375 15.609375 -15.21875 C 16.367188 -16.007812 16.75 -17.050781 16.75 -18.34375 C 16.75 -19.613281 16.375 -20.628906 15.625 -21.390625 C 14.882812 -22.148438 13.675781 -22.53125 12 -22.53125 L 7.4375 -22.53125 Z M 7.4375 -14.046875 "/></g></g></g><g fill="#ffffff" fill-opacity="1"><g transform="translate(139.522273, 202.836017)"><g><path d="M 0.875 0 L 10.59375 -26.59375 L 16.0625 -26.59375 L 25.796875 0 L 20.625 0 L 18.5 -6.15625 L 8.125 -6.15625 L 5.96875 0 Z M 9.453125 -9.953125 L 17.171875 -9.953125 L 13.296875 -21 Z M 9.453125 -9.953125 "/></g></g></g><g fill="#ffffff" fill-opacity="1"><g transform="translate(172.025644, 202.836017)"><g><path d="M 2.578125 0 L 2.578125 -26.59375 L 7.4375 -26.59375 L 19.9375 -7.859375 L 19.9375 -26.59375 L 24.796875 -26.59375 L 24.796875 0 L 19.9375 0 L 7.4375 -18.6875 L 7.4375 0 Z M 2.578125 0 "/></g></g></g><g fill="#ffffff" fill-opacity="1"><g transform="translate(205.288362, 202.836017)"><g><path d="M 2.578125 0 L 2.578125 -26.59375 L 7.4375 -26.59375 L 7.4375 -15.84375 L 17.28125 -26.59375 L 23.28125 -26.59375 L 13.484375 -16.03125 L 23.546875 0 L 17.59375 0 L 9.984375 -12.3125 L 7.4375 -9.53125 L 7.4375 0 Z M 2.578125 0 "/></g></g></g><g fill="#ffffff" fill-opacity="1"><g transform="translate(235.460512, 202.836017)"><g><path d="M 2.8125 0 L 2.8125 -26.59375 L 6 -26.59375 L 6 -14.859375 L 19.796875 -14.859375 L 19.796875 -26.59375 L 22.984375 -26.59375 L 22.984375 0 L 19.796875 0 L 19.796875 -12.234375 L 6 -12.234375 L 6 0 Z M 2.8125 0 "/></g></g></g><g fill="#ffffff" fill-opacity="1"><g transform="translate(267.128625, 202.836017)"><g><path d="M 2.8125 0 L 2.8125 -26.59375 L 6 -26.59375 L 6 0 Z M 2.8125 0 "/></g></g></g><g fill="#ffffff" fill-opacity="1"><g transform="translate(281.825524, 202.836017)"><g><path d="M 10.828125 0 L 0.828125 -26.59375 L 4.296875 -26.59375 L 12.6875 -3.375 L 21.15625 -26.59375 L 24.53125 -26.59375 L 14.546875 0 Z M 10.828125 0 "/></g></g></g><g fill="#ffffff" fill-opacity="1"><g transform="translate(313.076, 202.836017)"><g><path d="M 2.8125 0 L 2.8125 -26.59375 L 19.265625 -26.59375 L 19.265625 -23.96875 L 6 -23.96875 L 6 -14.703125 L 18.125 -14.703125 L 18.125 -12.109375 L 6 -12.109375 L 6 -2.625 L 19.265625 -2.625 L 19.265625 0 Z M 2.8125 0 "/></g></g></g></svg>